<svg width="1049" height="1049" viewBox="0 0 1049 1049" fill="none" xmlns="http://www.w3.org/2000/svg">
<circle cx="524.5" cy="524.5" r="524.5" transform="rotate(-90 524.5 524.5)" fill="#FA4454"/>
<path d="M396.111 888.889C397.142 889.921 398.541 890.5 400 890.5L672 890.5C673.459 890.5 674.858 889.921 675.889 888.889L793.889 770.889C795.462 769.316 795.933 766.95 795.081 764.895C794.23 762.84 792.225 761.5 790 761.5L282 761.5C279.775 761.5 277.77 762.84 276.919 764.895C276.067 766.95 276.538 769.316 278.111 770.889L396.111 888.889Z" fill="#F2F2F2" stroke="black" stroke-width="11" stroke-linecap="round" stroke-linejoin="round"/>
<path d="M396.111 597.111C397.142 596.079 398.541 595.5 400 595.5L672 595.5C673.459 595.5 674.858 596.079 675.889 597.111L793.889 715.111C795.462 716.684 795.933 719.05 795.081 721.105C794.23 723.16 792.225 724.5 790 724.5L282 724.5C279.775 724.5 277.77 723.16 276.919 721.105C276.067 719.05 276.538 716.684 278.111 715.111L396.111 597.111Z" fill="#F2F2F2" stroke="black" stroke-width="11" stroke-linecap="round" stroke-linejoin="round"/>
<path d="M380.889 579.889C381.921 578.858 382.5 577.459 382.5 576L382.5 304C382.5 302.541 381.921 301.142 380.889 300.111L262.889 182.111C261.316 180.538 258.95 180.067 256.895 180.919C254.84 181.77 253.5 183.775 253.5 186L253.5 694C253.5 696.225 254.84 698.23 256.895 699.081C258.95 699.933 261.316 699.462 262.889 697.889L380.889 579.889Z" fill="#F2F2F2" stroke="black" stroke-width="11" stroke-linecap="round" stroke-linejoin="round"/>
<path d="M396.111 285.889C397.142 286.921 398.541 287.5 400 287.5L672 287.5C673.459 287.5 674.858 286.921 675.889 285.889L793.889 167.889C795.462 166.316 795.933 163.95 795.081 161.895C794.23 159.84 792.225 158.5 790 158.5L282 158.5C279.775 158.5 277.77 159.84 276.919 161.895C276.067 163.95 276.538 166.316 278.111 167.889L396.111 285.889Z" fill="#F2F2F2" stroke="black" stroke-width="11" stroke-linecap="round" stroke-linejoin="round"/>
<path d="M462.852 380.157C463.906 381.191 464.5 382.606 464.5 384.083L464.5 494.917C464.5 496.394 463.906 497.809 462.852 498.843L413.852 546.926C412.271 548.477 409.914 548.929 407.871 548.071C405.829 547.214 404.5 545.215 404.5 543L404.5 336C404.5 333.785 405.829 331.786 407.871 330.929C409.914 330.071 412.271 330.523 413.852 332.074L462.852 380.157Z" fill="#F2F2F2" stroke="black" stroke-width="11" stroke-linecap="round" stroke-linejoin="round"/>
<path d="M518.787 409.846C519.881 410.884 520.5 412.326 520.5 413.835L520.5 464.165C520.5 465.674 519.881 467.116 518.787 468.154L495.787 489.989C494.192 491.503 491.849 491.921 489.829 491.054C487.809 490.186 486.5 488.199 486.5 486L486.5 392C486.5 389.801 487.809 387.814 489.829 386.946C491.849 386.079 494.192 386.497 495.787 388.011L518.787 409.846Z" fill="#F2F2F2" stroke="black" stroke-width="11" stroke-linecap="round" stroke-linejoin="round"/>
</svg>
