<svg width="1049" height="1049" viewBox="0 0 1049 1049" fill="none" xmlns="http://www.w3.org/2000/svg">
<circle cx="524.5" cy="524.5" r="524.5" fill="#FA4454"/>
<path d="M160.111 396.111C159.079 397.142 158.5 398.541 158.5 400V672C158.5 673.459 159.079 674.858 160.111 675.889L278.111 793.889C279.684 795.462 282.05 795.933 284.105 795.081C286.16 794.23 287.5 792.225 287.5 790V282C287.5 279.775 286.16 277.77 284.105 276.919C282.05 276.067 279.684 276.538 278.111 278.111L160.111 396.111Z" fill="#F2F2F2" stroke="#042E27" stroke-width="11" stroke-linecap="round" stroke-linejoin="round"/>
<path d="M451.889 396.111C452.921 397.142 453.5 398.541 453.5 400V672C453.5 673.459 452.921 674.858 451.889 675.889L333.889 793.889C332.316 795.462 329.95 795.933 327.895 795.081C325.84 794.23 324.5 792.225 324.5 790V282C324.5 279.775 325.84 277.77 327.895 276.919C329.95 276.067 332.316 276.538 333.889 278.111L451.889 396.111Z" fill="#F2F2F2" stroke="#042E27" stroke-width="11" stroke-linecap="round" stroke-linejoin="round"/>
<path d="M469.111 380.889C470.142 381.921 471.541 382.5 473 382.5L745 382.5C746.459 382.5 747.858 381.921 748.889 380.889L866.889 262.889C868.462 261.316 868.933 258.95 868.081 256.895C867.23 254.84 865.225 253.5 863 253.5L355 253.5C352.775 253.5 350.77 254.84 349.919 256.895C349.067 258.95 349.538 261.316 351.111 262.889L469.111 380.889Z" fill="#F2F2F2" stroke="#042E27" stroke-width="11" stroke-linecap="round" stroke-linejoin="round"/>
<path d="M763.111 396.111C762.079 397.142 761.5 398.541 761.5 400V672C761.5 673.459 762.079 674.858 763.111 675.889L881.111 793.889C882.684 795.462 885.05 795.933 887.105 795.081C889.16 794.23 890.5 792.225 890.5 790V282C890.5 279.775 889.16 277.77 887.105 276.919C885.05 276.067 882.684 276.538 881.111 278.111L763.111 396.111Z" fill="#F2F2F2" stroke="#042E27" stroke-width="11" stroke-linecap="round" stroke-linejoin="round"/>
<path d="M668.843 462.852C667.809 463.906 666.394 464.5 664.917 464.5L554.083 464.5C552.606 464.5 551.191 463.906 550.157 462.852L502.074 413.852C500.523 412.271 500.071 409.914 500.929 407.871C501.786 405.829 503.785 404.5 506 404.5L713 404.5C715.215 404.5 717.214 405.829 718.071 407.871C718.929 409.914 718.477 412.271 716.926 413.852L668.843 462.852Z" fill="#F2F2F2" stroke="#042E27" stroke-width="11" stroke-linecap="round" stroke-linejoin="round"/>
<path d="M639.154 518.787C638.116 519.881 636.674 520.5 635.165 520.5L584.835 520.5C583.326 520.5 581.884 519.881 580.846 518.787L559.011 495.787C557.497 494.192 557.079 491.849 557.946 489.829C558.814 487.809 560.801 486.5 563 486.5L657 486.5C659.199 486.5 661.186 487.809 662.054 489.829C662.921 491.849 662.503 494.192 660.989 495.787L639.154 518.787Z" fill="#F2F2F2" stroke="#042E27" stroke-width="11" stroke-linecap="round" stroke-linejoin="round"/>
</svg>
