<svg width="597" height="579" viewBox="0 0 597 579" fill="none" xmlns="http://www.w3.org/2000/svg">
<path d="M89.8845 68.1063C88.3105 66.536 85.9459 66.0678 83.8922 66.9199C81.8386 67.772 80.5 69.7766 80.5 72V484C80.5 486.134 81.7345 488.076 83.6671 488.981C85.5998 489.886 87.8816 489.591 89.521 488.225L157.615 431.481L294.563 571.841C295.596 572.899 297.011 573.497 298.49 573.5C299.969 573.503 301.387 572.91 302.423 571.855L440.347 431.494L507.45 488.201C509.085 489.583 511.374 489.89 513.316 488.989C515.258 488.087 516.5 486.141 516.5 484V72C516.5 69.7766 515.161 67.772 513.108 66.9199C511.054 66.0678 508.69 66.536 507.116 68.1063L298.5 276.231L89.8845 68.1063Z" fill="#C4C4C4" stroke="black" stroke-width="11" stroke-linejoin="round"/>
<path d="M253.301 362.602L191 300.301V238L253.301 300.301V362.602Z" fill="white" stroke="black" stroke-width="11" stroke-linecap="round" stroke-linejoin="round"/>
<path d="M343.699 362.602L406 300.301V238L343.699 300.301V362.602Z" fill="white" stroke="black" stroke-width="11" stroke-linecap="round" stroke-linejoin="round"/>
<path d="M449 140L449 402M149 402L149 140" stroke="black" stroke-width="11" stroke-linecap="round"/>
<rect x="298.421" y="7.77817" width="189" height="189" transform="rotate(45 298.421 7.77817)" fill="#A08A8A" stroke="black" stroke-width="11"/>
<path d="M334.5 479.5L299 517L262.5 479.5V432.5L299 468L334.5 432.5V479.5Z" fill="#D52727"/>
<path d="M339.5 482.343L298.421 523.421L257.343 482.343M448 311.843L298.421 461.421L148.843 311.843M257 421.579L257 482.579M339 482.579V421.579" stroke="black" stroke-width="11" stroke-linecap="round" stroke-linejoin="round"/>
<path d="M591 95L568.388 141.698C553.605 172.229 553.59 208.021 568.185 238.642V238.642C582.559 268.798 582.651 304.023 568.278 334.178V334.178C553.588 364.998 553.928 400.868 569.198 431.404L591 475" stroke="black" stroke-width="11" stroke-linecap="round" stroke-linejoin="round"/>
<path d="M6 473L28.6119 426.302C43.3952 395.771 43.4102 359.979 28.8148 329.358V329.358C14.4415 299.202 14.3486 263.977 28.7219 233.822V233.822C43.4117 203.002 43.0723 167.132 27.8018 136.596L6 93" stroke="black" stroke-width="11" stroke-linecap="round" stroke-linejoin="round"/>
</svg>
