<?xml version="1.0" encoding="utf-8"?>
<!-- Generator: Adobe Illustrator 24.3.0, SVG Export Plug-In . SVG Version: 6.00 Build 0)  -->
<svg version="1.1" id="Layer_1" xmlns="http://www.w3.org/2000/svg" xmlns:xlink="http://www.w3.org/1999/xlink" x="0px" y="0px"
	 viewBox="0 0 1049 1049" style="enable-background:new 0 0 1049 1049;" xml:space="preserve">
<style type="text/css">
	.st0{fill:#111111;}
	.st1{fill:#CF191B;}
</style>
<path class="st0" d="M828.2,1022H220.8c-109.6,0-198.5-88.9-198.5-198.5V216.1c0-109.6,88.9-198.5,198.5-198.5h607.4
	c109.6,0,198.5,88.9,198.5,198.5v607.4C1026.7,933.1,937.8,1022,828.2,1022z"/>
<g>
	
		<image style="overflow:visible;opacity:0.44;" width="869" height="841" xlink:href="B7E76534.png"  transform="matrix(1 0 0 1 89.9528 103.9528)">
	</image>
	<g>
		<g>
			<path class="st1" d="M342,374c1.2,1.2,1.9,2.8,1.9,4.6v318.9c0,1.7-0.7,3.4-1.9,4.6L203.7,840.4c-1.8,1.8-4.6,2.4-7,1.4
				c-2.4-1-4-3.3-4-6V240.2c0-2.6,1.6-5,4-6c2.4-1,5.2-0.4,7,1.4L342,374z"/>
			<path class="st1" d="M362.2,356.1c1.2,1.2,2.8,1.9,4.6,1.9h318.9c1.7,0,3.4-0.7,4.6-1.9l138.4-138.4c1.8-1.8,2.4-4.6,1.4-7
				c-1-2.4-3.3-4-6-4H228.4c-2.6,0-5,1.6-6,4c-1,2.4-0.4,5.2,1.4,7L362.2,356.1z"/>
			<path class="st1" d="M707,374c-1.2,1.2-1.9,2.8-1.9,4.6v318.9c0,1.7,0.7,3.4,1.9,4.6l138.4,138.4c1.8,1.8,4.6,2.4,7,1.4
				c2.4-1,4-3.3,4-6V240.2c0-2.6-1.6-5-4-6c-2.4-1-5.2-0.4-7,1.4L707,374z"/>
			<path class="st1" d="M596.4,452.2c-1.2,1.2-2.9,1.9-4.6,1.9h-130c-1.7,0-3.4-0.7-4.6-1.9l-56.4-57.5c-1.8-1.9-2.3-4.6-1.3-7
				c1-2.4,3.3-4,5.9-4h242.7c2.6,0,4.9,1.6,5.9,4c1,2.4,0.5,5.2-1.3,7L596.4,452.2z"/>
			<path class="st1" d="M561.6,517.8c-1.2,1.3-2.9,2-4.7,2h-59c-1.8,0-3.5-0.7-4.7-2l-25.6-27c-1.8-1.9-2.3-4.6-1.2-7
				c1-2.4,3.3-3.9,5.9-3.9h110.2c2.6,0,4.9,1.5,5.9,3.9c1,2.4,0.5,5.1-1.2,7L561.6,517.8z"/>
		</g>
	</g>
</g>
</svg>
