<svg width="746" height="500" viewBox="0 0 746 500" fill="none" xmlns="http://www.w3.org/2000/svg">
<g clip-path="url(#clip0)">
<path d="M745.472 484.386C745.472 488.285 711.371 491.848 654.984 494.587C644.734 495.078 633.744 495.547 622.092 496.01C612.02 496.394 601.466 496.752 590.431 497.084C579.733 497.401 568.629 497.698 557.12 497.973C520.757 498.841 480.567 499.467 437.865 499.78C427.504 499.86 417.002 499.919 406.361 499.957C395.278 500 384.07 500.019 372.736 500.014C166.878 500.014 0 493.029 0 484.408C0 475.786 166.878 468.759 372.736 468.759C461.361 468.759 542.744 470.053 606.721 472.216L613.713 472.45H613.756C694.335 475.338 745.472 479.606 745.472 484.386Z" fill="#3F3D56"/>
<path opacity="0.1" d="M745.472 484.386C745.472 488.285 711.371 491.848 654.984 494.587C644.734 495.078 633.744 495.547 622.092 496.01C612.02 496.394 601.466 496.752 590.431 497.084C579.733 497.401 568.629 497.698 557.12 497.973C520.757 498.841 480.567 499.467 437.865 499.78C427.504 499.86 417.002 499.919 406.361 499.957C395.278 500 384.07 500.019 372.736 500.014C166.878 500.014 0 493.029 0 484.408C0 475.786 166.878 468.759 372.736 468.759C461.361 468.759 542.744 470.053 606.721 472.216L613.713 472.45H613.756C694.335 475.338 745.472 479.606 745.472 484.386Z" fill="black"/>
<path d="M745.472 478.532C745.472 482.43 711.371 485.994 654.984 488.725C644.734 489.223 633.744 489.693 622.092 490.148C612.02 490.532 601.466 490.89 590.431 491.222C579.733 491.54 568.629 491.836 557.12 492.111C520.757 492.979 480.567 493.605 437.865 493.918C427.504 493.989 417.002 494.048 406.361 494.096C395.278 494.134 384.07 494.153 372.736 494.153C166.878 494.153 0 487.168 0 478.546C0 469.925 166.878 462.933 372.736 462.933C461.361 462.933 542.744 464.227 606.721 466.39L613.713 466.624H613.756C694.335 469.484 745.472 473.752 745.472 478.532Z" fill="#3F3D56"/>
<path d="M745.472 478.525C745.472 482.423 711.371 485.987 654.984 488.733C644.734 489.223 633.744 489.693 622.092 490.155C612.02 490.53 601.466 490.888 590.431 491.229C579.733 491.547 568.631 491.844 557.127 492.119C520.757 492.986 480.567 493.612 437.865 493.925C427.509 493.996 417.007 494.053 406.361 494.096C395.278 494.139 384.07 494.162 372.736 494.167C166.878 494.167 0 487.175 0 478.518C0 471.085 124.191 464.86 290.485 463.296C299.97 463.201 309.561 463.125 319.259 463.068C336.719 462.968 354.545 462.916 372.736 462.911C390.927 462.907 408.753 462.959 426.214 463.068C435.931 463.13 445.519 463.205 454.98 463.296C511.495 463.822 563.159 464.896 606.714 466.368L613.706 466.603H613.756C694.335 469.484 745.472 473.752 745.472 478.525Z" fill="#3F3D56"/>
<path d="M553.414 187.236L495.739 189.896L552.411 178.323C551.528 173.219 550.098 168.225 548.143 163.428C556.125 157.611 562.828 150.216 567.833 141.701C572.839 133.186 576.041 123.733 577.242 113.929C578.442 104.125 577.615 94.1788 574.812 84.7078C572.008 75.2368 567.288 66.4429 560.945 58.8719C554.601 51.3009 546.769 45.1143 537.935 40.6961C529.101 36.2778 519.454 33.7222 509.591 33.1877C499.728 32.6532 489.861 34.1513 480.601 37.589C471.341 41.0267 462.887 46.3306 455.762 53.1718L495.981 105.099L448.898 60.783C442.874 68.5425 438.496 77.4493 436.031 86.9586C433.567 96.4679 433.068 106.38 434.565 116.089L475.779 127.47L435.945 122.875C436.771 126.098 437.817 129.262 439.075 132.343C425.987 141.833 416.469 155.446 412.049 170.997C407.63 186.547 408.565 203.131 414.705 218.086C404.706 225.32 396.732 234.999 391.545 246.197C386.359 257.395 384.134 269.737 385.085 282.041C386.035 294.346 390.128 306.2 396.972 316.469C403.816 326.738 413.182 335.078 424.172 340.691C422.482 343.042 421.216 345.671 420.431 348.458C419.232 352.504 419.137 356.797 420.153 360.893C417.164 363.865 414.987 367.554 413.831 371.608C412.675 375.662 412.579 379.945 413.552 384.046C410.563 387.018 408.386 390.708 407.23 394.762C406.074 398.816 405.978 403.098 406.951 407.2C403.96 410.171 401.783 413.861 400.627 417.915C399.471 421.969 399.376 426.252 400.35 430.354C397.327 433.301 395.144 437.002 394.026 441.073C391.046 451.53 395.107 461.866 403.103 464.142C411.098 466.418 419.99 459.781 422.97 449.318C424.167 445.272 424.265 440.98 423.255 436.884C426.241 433.909 428.415 430.22 429.571 426.167C430.726 422.113 430.824 417.832 429.856 413.73C432.842 410.755 435.017 407.064 436.173 403.009C437.328 398.955 437.426 394.672 436.457 390.569C439.444 387.596 441.619 383.906 442.775 379.853C443.931 375.799 444.028 371.517 443.058 367.415C446.082 364.469 448.263 360.768 449.375 356.696C450.17 353.954 450.483 351.094 450.299 348.245C462.639 349.385 475.065 347.324 486.376 342.262C497.688 337.2 507.503 329.307 514.875 319.345C522.247 309.384 526.926 297.69 528.461 285.393C529.996 273.096 528.334 260.611 523.637 249.143C533.348 242.112 541.152 232.772 546.345 221.966C551.537 211.161 553.955 199.232 553.378 187.257L553.414 187.236Z" fill="#F2F2F2"/>
<path opacity="0.1" d="M372.736 487.395C420.779 487.395 459.725 483.277 459.725 478.198C459.725 473.118 420.779 469 372.736 469C324.694 469 285.748 473.118 285.748 478.198C285.748 483.277 324.694 487.395 372.736 487.395Z" fill="black"/>
<path d="M372.736 479.87C468.357 479.87 545.873 402.353 545.873 306.732C545.873 211.111 468.357 133.595 372.736 133.595C277.115 133.595 199.599 211.111 199.599 306.732C199.599 402.353 277.115 479.87 372.736 479.87Z" fill="#3F3D56"/>
<path opacity="0.1" d="M516.602 306.725C516.602 386.18 452.184 450.591 372.736 450.591C368.176 450.591 363.66 450.385 359.221 449.965C287.69 443.286 231.359 384.253 228.962 311.576C228.905 309.959 228.877 308.342 228.877 306.725C228.877 303.092 229.012 299.488 229.282 295.913C234.809 221.515 296.93 162.894 372.743 162.894C438.185 162.894 493.413 206.584 510.862 266.378C511.168 267.452 511.474 268.512 511.765 269.615C512.832 273.646 513.733 277.745 514.468 281.914C515.889 290.108 516.603 298.409 516.602 306.725V306.725Z" fill="black"/>
<path opacity="0.4" d="M516.602 306.725C516.602 386.18 452.184 450.591 372.736 450.591C294.909 450.591 231.509 388.777 228.955 311.576C245.358 312.046 262.067 311.505 277.567 306.163C294.369 300.38 308.752 289.312 324.223 280.555C365.786 257.117 415.387 250.807 462.868 255.445C478.994 257.017 495.718 260.289 510.855 266.307C514.677 279.427 516.613 293.024 516.602 306.689V306.725Z" fill="#585EC7"/>
<path opacity="0.4" d="M516.603 306.725C516.603 386.18 452.185 450.591 372.736 450.591C368.177 450.591 363.66 450.385 359.221 449.965C335.893 438.443 316.125 420.811 302.023 398.946C287.921 377.08 280.013 351.8 279.14 325.796C295.543 326.265 312.252 325.725 327.752 320.382C344.561 314.599 358.936 303.531 374.408 294.775C415.594 271.543 464.668 265.148 511.758 269.544C512.825 273.575 513.726 277.674 514.461 281.843C515.889 290.06 516.605 298.385 516.603 306.725Z" fill="#585EC7"/>
<path d="M516.603 306.725C516.603 386.18 452.185 450.591 372.736 450.591C293.288 450.591 228.87 386.18 228.87 306.725C228.87 303.092 229.005 299.488 229.276 295.913C240.621 297.299 251.694 300.38 262.125 305.053C278.997 312.629 294.006 324.259 311.555 330.099C324.359 334.367 337.974 335.384 351.446 335.79C368.269 336.323 385.448 335.897 401.36 330.412C418.162 324.629 432.538 313.561 448.016 304.84C468.595 293.231 491.165 285.826 514.461 281.871C515.887 290.079 516.604 298.394 516.603 306.725Z" fill="#585EC7"/>
<path d="M702.793 28.5457L689.811 36.7758L697.692 22.4425C695.468 20.6642 692.715 19.678 689.868 19.6399H689.654C688.754 19.6525 687.854 19.5858 686.966 19.4407L682.562 22.2291L684.447 18.8005C681.331 17.7117 678.638 15.6682 676.751 12.9605L668.876 17.9398L673.856 8.89171C669.246 3.36469 663.044 -0.0212402 656.208 -0.0212402C648.02 -0.0212402 640.729 4.84425 636.02 12.4341C634.629 14.7045 632.661 16.5663 630.317 17.8306C627.974 19.0949 625.337 19.7166 622.676 19.6328H622.235C613.194 19.6328 605.874 29.883 605.874 42.5304C605.874 55.1779 613.201 65.421 622.235 65.421C624.218 65.4121 626.171 64.924 627.925 63.9983C633.822 60.9325 641.561 60.8685 647.736 63.6071C650.383 64.7954 653.251 65.4133 656.153 65.4206C659.055 65.428 661.926 64.8246 664.58 63.6498C670.712 60.961 678.358 61.0179 684.22 64.0268C685.959 64.9468 687.893 65.4348 689.861 65.4494C698.902 65.4494 706.221 55.1992 706.221 42.5589C706.274 37.6739 705.095 32.8544 702.793 28.5457V28.5457Z" fill="#F2F2F2"/>
<path opacity="0.03" d="M678.316 62.042C673.593 61.1439 668.709 61.6738 664.288 63.5642C661.64 64.7483 658.771 65.3602 655.87 65.3602C652.969 65.3602 650.1 64.7483 647.451 63.5642C641.27 60.8256 633.531 60.8825 627.634 63.9484C625.88 64.877 623.927 65.3652 621.943 65.371C613.877 65.3426 607.226 57.2263 605.832 46.5564C607.436 45.3877 608.798 43.9189 609.843 42.2315C614.552 34.6416 621.851 29.7761 630.038 29.7761C638.225 29.7761 645.431 34.5847 650.14 42.0892C651.545 44.3566 653.512 46.223 655.85 47.5078C658.188 48.7925 660.817 49.4522 663.485 49.423H663.691C670.072 49.4372 675.62 54.5659 678.316 62.042Z" fill="black"/>
<path d="M137.336 19.2555L130.863 23.3599L134.797 16.2466C133.686 15.3483 132.306 14.8475 130.877 14.8239H130.778C130.327 14.8302 129.878 14.7969 129.433 14.7244L127.235 16.147L128.181 14.4327C126.627 13.8911 125.283 12.8731 124.34 11.5234L120.414 14.013L122.896 9.4961C121.85 8.14996 120.518 7.05288 118.996 6.28405C117.475 5.51523 115.801 5.09383 114.097 5.05029C110.007 5.05029 106.372 7.48304 104.025 11.2673C103.326 12.3934 102.342 13.3153 101.173 13.9398C100.004 14.5642 98.6911 14.8692 97.3666 14.8239H97.146C92.6362 14.8239 88.98 19.9313 88.98 26.2408C88.98 32.5503 92.6362 37.622 97.146 37.622C98.1381 37.6186 99.1144 37.3745 99.9914 36.9107C101.526 36.165 103.204 35.7616 104.91 35.7285C106.616 35.6953 108.309 36.0332 109.872 36.7186C111.194 37.3072 112.625 37.6113 114.072 37.6113C115.519 37.6113 116.95 37.3072 118.272 36.7186C119.824 36.0476 121.5 35.7169 123.19 35.7488C124.88 35.7807 126.543 36.1745 128.067 36.9036C128.932 37.3653 129.897 37.6094 130.877 37.6149C135.387 37.6149 139.043 32.5076 139.043 26.2337C139.072 23.8008 138.485 21.4002 137.336 19.2555Z" fill="#F2F2F2"/>
<path opacity="0.03" d="M125.137 35.9647C122.783 35.5143 120.347 35.7794 118.145 36.7259C116.823 37.3144 115.392 37.6185 113.944 37.6185C112.497 37.6185 111.066 37.3144 109.744 36.7259C108.18 36.0402 106.486 35.7023 104.779 35.7355C103.072 35.7687 101.392 36.1721 99.8565 36.9179C98.9803 37.3836 98.0034 37.6278 97.0112 37.6292C92.9993 37.6292 89.6702 33.596 88.9731 28.2753C89.7709 27.6975 90.4517 26.9733 90.9791 26.1413C93.3265 22.357 96.9685 19.9314 101.052 19.9314C105.135 19.9314 108.727 22.3286 111.074 26.0702C111.774 27.202 112.756 28.1334 113.922 28.7741C115.089 29.4147 116.401 29.7428 117.732 29.7264H117.839C121.033 29.6766 123.771 32.2374 125.137 35.9647Z" fill="black"/>
<path d="M204.393 97.8147L214.821 104.409L208.505 92.9279C210.296 91.5022 212.511 90.7138 214.8 90.6872H214.963C215.678 90.699 216.393 90.6442 217.097 90.5236L220.619 92.7643L219.089 90.0114C221.586 89.1395 223.745 87.5015 225.256 85.3309L231.566 89.3357L227.625 82.1228C231.317 77.6983 236.289 75.0095 241.759 75.0095C248.325 75.0095 254.165 78.9076 257.942 84.9681C259.055 86.7842 260.628 88.2741 262.501 89.2871C264.375 90.3001 266.483 90.8003 268.612 90.737H268.968C276.209 90.737 282.077 98.9457 282.077 109.075C282.077 119.204 276.209 127.42 268.968 127.42C267.373 127.414 265.803 127.021 264.394 126.275C261.929 125.078 259.233 124.429 256.493 124.375C253.753 124.321 251.034 124.863 248.524 125.962C246.401 126.92 244.099 127.419 241.77 127.425C239.441 127.431 237.137 126.944 235.009 125.998C232.518 124.916 229.823 124.384 227.108 124.437C224.393 124.49 221.721 125.126 219.274 126.303C217.879 127.03 216.33 127.413 214.757 127.42C207.509 127.42 201.64 119.204 201.64 109.075C201.594 105.15 202.541 101.276 204.393 97.8147V97.8147Z" fill="#F2F2F2"/>
<path opacity="0.03" d="M223.99 124.653C227.775 123.937 231.687 124.362 235.229 125.877C237.355 126.827 239.658 127.318 241.987 127.318C244.316 127.318 246.618 126.827 248.744 125.877C251.255 124.775 253.975 124.231 256.717 124.284C259.458 124.337 262.155 124.985 264.621 126.183C266.028 126.929 267.596 127.322 269.188 127.328C275.626 127.328 280.975 120.848 282.092 112.297C280.791 111.352 279.687 110.164 278.841 108.798C275.064 102.723 269.224 98.8391 262.658 98.8391C256.092 98.8391 250.331 102.695 246.554 108.712C245.43 110.525 243.857 112.018 241.988 113.046C240.119 114.074 238.017 114.602 235.884 114.581H235.72C230.591 114.559 226.153 118.664 223.99 124.653Z" fill="black"/>
<path d="M675.663 469.135C679.12 462.733 675.2 454.909 670.683 449.218C666.166 443.528 660.725 437.588 660.81 430.325C660.981 419.89 672.056 413.723 680.912 408.189C687.483 404.086 693.543 399.217 698.966 393.685C701.142 391.465 703.234 389.09 704.514 386.258C706.342 382.183 706.292 377.538 706.179 373.063C705.795 358.178 705.057 343.301 703.966 328.435" stroke="#3F3D56" stroke-width="4" stroke-miterlimit="10"/>
<path d="M720.796 327.617C720.67 324.891 719.858 322.241 718.437 319.911C717.016 317.581 715.031 315.647 712.666 314.286L709.024 321.492L709.13 312.764C705.821 311.791 702.287 311.894 699.04 313.06C695.793 314.226 693 316.393 691.065 319.249C689.13 322.105 688.152 325.502 688.274 328.95C688.395 332.398 689.609 335.718 691.74 338.431C693.871 341.144 696.809 343.11 700.13 344.045C703.451 344.979 706.983 344.835 710.216 343.631C713.449 342.428 716.216 340.228 718.118 337.35C720.02 334.471 720.958 331.063 720.796 327.617V327.617Z" fill="#79B1B2"/>
<path d="M691.767 437.787C690.058 441.105 687.261 443.734 683.844 445.234C680.426 446.734 676.597 447.013 672.999 446.025C669.4 445.037 666.25 442.842 664.078 439.808C661.905 436.774 660.842 433.085 661.067 429.359C661.291 425.634 662.789 422.1 665.31 419.348C667.831 416.596 671.221 414.795 674.913 414.246C678.604 413.697 682.372 414.434 685.584 416.334C688.797 418.233 691.258 421.179 692.557 424.677L682.385 432.95L693.574 430.361C693.574 432.945 692.954 435.492 691.767 437.787V437.787Z" fill="#79B1B2"/>
<path d="M683.729 406.183C679.732 406.376 675.804 405.09 672.696 402.571C669.587 400.052 667.515 396.475 666.876 392.525C666.237 388.575 667.076 384.528 669.232 381.157C671.388 377.786 674.711 375.328 678.565 374.251L678.479 380.959L682.164 373.661H682.207C684.369 373.515 686.538 373.801 688.588 374.504C690.637 375.207 692.526 376.311 694.143 377.753C695.761 379.196 697.074 380.946 698.006 382.902C698.938 384.858 699.47 386.98 699.572 389.145C699.673 391.309 699.341 393.472 698.596 395.507C697.851 397.541 696.707 399.407 695.231 400.993C693.756 402.58 691.978 403.857 690.003 404.748C688.028 405.639 685.895 406.127 683.729 406.183V406.183Z" fill="#79B1B2"/>
<path d="M723.243 379.892C720.725 380.012 718.213 379.545 715.905 378.528C713.598 377.511 711.559 375.972 709.947 374.033C708.336 372.093 707.197 369.806 706.621 367.351C706.044 364.897 706.046 362.342 706.625 359.888C707.204 357.434 708.345 355.148 709.959 353.21C711.572 351.272 713.614 349.736 715.922 348.721C718.231 347.707 720.743 347.243 723.261 347.365C725.78 347.487 728.236 348.193 730.435 349.426L727.59 357.308L733.508 351.617C735.08 353.052 736.353 354.782 737.255 356.709C738.157 358.637 738.67 360.723 738.765 362.849C738.846 364.366 738.71 365.887 738.359 367.366C737.546 370.814 735.629 373.903 732.902 376.163C730.174 378.424 726.783 379.733 723.243 379.892Z" fill="#79B1B2"/>
<path opacity="0.1" d="M718.605 331.956C714.85 332.368 711.193 333.535 707.423 333.77C703.653 334.004 699.513 333.101 697.13 330.17C695.843 328.591 695.203 326.614 694.114 324.871C693.087 323.268 691.679 321.944 690.017 321.016C688.964 323.081 688.363 325.347 688.256 327.662C688.149 329.978 688.538 332.29 689.396 334.443C690.254 336.596 691.562 338.542 693.233 340.149C694.903 341.756 696.898 342.988 699.082 343.762C701.267 344.536 703.593 344.835 705.902 344.638C708.212 344.442 710.453 343.754 712.476 342.622C714.498 341.489 716.256 339.938 717.631 338.072C719.005 336.205 719.966 334.067 720.448 331.799C719.864 331.849 719.217 331.892 718.605 331.956Z" fill="black"/>
<path opacity="0.1" d="M723.243 379.892C720.443 380.015 717.658 379.414 715.157 378.146C712.657 376.878 710.526 374.986 708.971 372.654C707.415 370.322 706.488 367.628 706.278 364.832C706.068 362.037 706.582 359.234 707.772 356.696C709.068 357.563 710.179 358.678 711.044 359.975C712.204 361.725 712.908 363.745 714.274 365.353C716.806 368.333 721.138 369.308 725.064 369.13C728.991 368.952 732.782 367.835 736.702 367.48C737.242 367.43 737.79 367.394 738.338 367.38C737.523 370.822 735.608 373.905 732.885 376.163C730.162 378.42 726.777 379.729 723.243 379.892V379.892Z" fill="black"/>
<path opacity="0.1" d="M683.729 406.183C680.948 406.32 678.178 405.741 675.685 404.502C673.192 403.263 671.058 401.404 669.488 399.105C667.918 396.805 666.964 394.142 666.717 391.368C666.471 388.595 666.94 385.804 668.08 383.264C669.418 384.149 670.585 385.27 671.523 386.572C672.782 388.357 673.571 390.413 675.079 392.063C677.825 395.122 682.442 396.196 686.603 396.096C690.636 396.011 694.513 395.022 698.525 394.716C697.537 397.917 695.586 400.735 692.939 402.787C690.291 404.839 687.075 406.025 683.729 406.183V406.183Z" fill="black"/>
<path opacity="0.1" d="M691.767 437.787C689.857 441.482 686.605 444.305 682.679 445.678C678.752 447.051 674.45 446.869 670.653 445.17C666.857 443.471 663.855 440.384 662.262 436.541C660.67 432.699 660.609 428.393 662.09 424.507C663.425 425.387 664.623 426.458 665.647 427.686C667.198 429.579 668.215 431.713 670.008 433.47C673.337 436.742 678.707 438.086 683.523 438.214C686.277 438.233 689.03 438.09 691.767 437.787V437.787Z" fill="black"/>
<path d="M651.122 461.78C651.122 461.78 663.968 461.382 667.838 458.629C671.707 455.876 687.599 452.576 688.559 457C689.519 461.425 707.864 478.987 693.36 479.108C678.856 479.229 659.658 476.846 655.795 474.492C651.933 472.137 651.122 461.78 651.122 461.78Z" fill="#656380"/>
<path opacity="0.2" d="M693.623 477.572C679.119 477.686 659.921 475.31 656.058 472.955C653.113 471.163 651.94 464.732 651.548 461.766H651.122C651.122 461.766 651.933 472.123 655.795 474.478C659.658 476.832 678.856 479.208 693.36 479.094C697.55 479.058 698.994 477.572 698.916 475.367C698.333 476.711 696.739 477.543 693.623 477.572Z" fill="black"/>
<path d="M601.784 466.24C599.529 462.065 602.09 456.95 605.028 453.23C607.965 449.51 611.55 445.633 611.472 440.889C611.365 434.074 604.131 430.048 598.348 426.434C594.057 423.755 590.101 420.574 586.561 416.959C585.08 415.57 583.854 413.93 582.941 412.115C581.746 409.448 581.781 406.425 581.859 403.501C582.111 393.77 582.585 384.049 583.282 374.337" stroke="#3F3D56" stroke-width="4" stroke-miterlimit="10"/>
<path d="M572.307 373.768C572.39 371.991 572.918 370.264 573.843 368.746C574.768 367.227 576.059 365.965 577.599 365.075L579.975 369.784L579.904 364.094C582.067 363.452 584.378 363.515 586.503 364.273C588.628 365.032 590.457 366.446 591.725 368.313C592.993 370.179 593.634 372.4 593.556 374.655C593.479 376.91 592.686 379.082 591.292 380.857C589.898 382.631 587.977 383.916 585.804 384.527C583.632 385.137 581.322 385.04 579.208 384.251C577.095 383.462 575.287 382.021 574.046 380.136C572.805 378.252 572.196 376.021 572.307 373.768Z" fill="#79B1B2"/>
<path d="M591.264 445.733C592.335 447.816 594.066 449.487 596.185 450.485C598.305 451.483 600.695 451.753 602.984 451.253C605.273 450.752 607.332 449.509 608.842 447.717C610.351 445.925 611.226 443.684 611.33 441.344C611.399 439.873 611.156 438.404 610.619 437.033C609.848 435.01 608.477 433.27 606.69 432.046C604.904 430.822 602.786 430.173 600.621 430.186C598.455 430.198 596.345 430.871 594.573 432.115C592.8 433.359 591.45 435.115 590.702 437.147L597.345 442.553L590.04 440.86C590.044 442.56 590.464 444.232 591.264 445.733V445.733Z" fill="#79B1B2"/>
<path d="M596.506 425.097C599.32 425.219 602.068 424.223 604.151 422.327C606.234 420.431 607.482 417.788 607.624 414.975C607.71 413.31 607.395 411.649 606.706 410.131C606.068 408.711 605.126 407.448 603.948 406.43C602.769 405.413 601.383 404.666 599.885 404.241L599.935 408.623L597.516 403.857C594.703 403.737 591.957 404.734 589.876 406.63C587.795 408.526 586.547 411.167 586.405 413.979C586.342 415.206 586.496 416.434 586.86 417.607C587.508 419.692 588.781 421.529 590.506 422.868C592.23 424.208 594.325 424.986 596.506 425.097V425.097Z" fill="#79B1B2"/>
<path d="M570.706 407.911C573.52 408.033 576.268 407.038 578.351 405.141C580.434 403.245 581.682 400.602 581.824 397.789C581.901 395.898 581.474 394.021 580.586 392.349C579.698 390.678 578.381 389.273 576.771 388.278C575.161 387.283 573.315 386.735 571.423 386.689C569.531 386.643 567.661 387.101 566.004 388.016L567.882 393.166L564.02 389.452C562.473 390.872 561.38 392.717 560.88 394.756C560.38 396.795 560.495 398.937 561.21 400.911C561.925 402.885 563.208 404.603 564.898 405.849C566.588 407.095 568.609 407.812 570.706 407.911V407.911Z" fill="#79B1B2"/>
<path opacity="0.1" d="M573.736 376.613C576.183 376.883 578.573 377.644 581.034 377.801C583.495 377.957 586.199 377.36 587.756 375.446C588.596 374.415 589.015 373.113 589.727 371.989C590.399 370.942 591.318 370.076 592.401 369.464C593.231 371.122 593.614 372.968 593.513 374.82C593.412 376.671 592.83 378.464 591.825 380.023C590.82 381.581 589.426 382.85 587.78 383.705C586.135 384.56 584.296 384.972 582.443 384.9C580.101 384.785 577.862 383.902 576.072 382.388C574.283 380.873 573.042 378.811 572.541 376.52C572.932 376.549 573.331 376.613 573.736 376.613Z" fill="black"/>
<path opacity="0.1" d="M570.706 407.911C573.52 408.033 576.268 407.038 578.351 405.141C580.434 403.245 581.682 400.602 581.824 397.789C581.91 396.05 581.563 394.317 580.814 392.746C579.971 393.312 579.246 394.037 578.68 394.88C577.919 396.018 577.464 397.341 576.546 398.394C574.889 400.336 572.058 400.976 569.497 400.855C566.936 400.734 564.453 400.016 561.893 399.781C561.544 399.745 561.181 399.724 560.826 399.717C561.354 401.973 562.605 403.995 564.389 405.474C566.173 406.954 568.391 407.81 570.706 407.911V407.911Z" fill="black"/>
<path opacity="0.1" d="M596.506 425.097C599.32 425.219 602.068 424.223 604.151 422.327C606.234 420.431 607.482 417.788 607.624 414.975C607.71 413.31 607.395 411.649 606.706 410.131C605.833 410.699 605.071 411.422 604.459 412.265C603.634 413.431 603.121 414.769 602.154 415.822C600.361 417.82 597.345 418.525 594.628 418.461C591.911 418.397 589.464 417.749 586.846 417.557C587.487 419.654 588.757 421.503 590.486 422.852C592.214 424.201 594.316 424.985 596.506 425.097V425.097Z" fill="black"/>
<path opacity="0.1" d="M591.264 445.733C592.336 447.816 594.066 449.487 596.186 450.485C598.305 451.483 600.695 451.753 602.984 451.253C605.273 450.752 607.332 449.509 608.842 447.717C610.351 445.925 611.226 443.684 611.33 441.344C611.399 439.873 611.156 438.404 610.619 437.033C609.742 437.609 608.956 438.311 608.286 439.117C607.276 440.348 606.607 441.742 605.44 442.895C603.264 445.029 599.75 445.903 596.634 445.989C594.841 446.01 593.047 445.925 591.264 445.733V445.733Z" fill="black"/>
<path d="M617.81 461.411C617.81 461.411 609.416 461.147 606.891 459.348C604.366 457.548 593.98 455.4 593.376 458.288C592.771 461.176 580.771 472.65 590.239 472.721C599.707 472.792 612.247 471.248 614.773 469.712C617.298 468.175 617.81 461.411 617.81 461.411Z" fill="#656380"/>
<path opacity="0.2" d="M590.047 471.718C599.522 471.796 612.098 470.245 614.581 468.709C616.509 467.535 617.27 463.331 617.526 461.396H617.81C617.81 461.396 617.277 468.161 614.752 469.697C612.226 471.234 599.693 472.785 590.218 472.706C587.486 472.706 586.54 471.718 586.59 470.274C586.974 471.156 588.013 471.703 590.047 471.718Z" fill="black"/>
<path opacity="0.6" d="M350.685 381.379C366.868 378.391 366.939 354.804 366.939 354.804C366.228 358.175 364.57 358.503 356.141 361.206C347.712 363.909 342.626 372.622 342.626 372.622C317.437 343.906 295.785 375.176 295.785 375.176C299.399 380.609 304.693 384.709 310.858 386.849C309.862 389.282 308.809 392.675 310.047 393.92C311.469 395.342 315.36 390.968 317.452 388.343C318.078 388.414 318.704 388.478 319.33 388.521C320.532 390.932 323.512 397.27 323.505 401.033C323.505 401.033 330.377 400.507 329.509 387.98C333.865 387.269 338.113 386.005 342.149 384.217C342.149 384.217 341.438 403.757 347.128 404.782C352.819 405.806 358.396 412.734 358.396 412.734C366.846 396.253 350.685 381.379 350.685 381.379Z" fill="#FE7D1E"/>
<path opacity="0.6" d="M451.395 344.397C467.528 347.626 476.341 325.746 476.341 325.746C474.456 328.591 472.784 328.299 463.943 327.659C455.101 327.019 447.162 333.222 447.162 333.222C434.422 297.243 402.711 318.284 402.711 318.284C404.055 324.671 407.453 330.442 412.385 334.716C410.557 336.608 408.324 339.368 409.014 340.975C409.81 342.86 415.039 340.207 417.955 338.543C418.51 338.848 419.072 339.133 419.634 339.403C419.854 342.092 420.274 349.084 418.873 352.577C418.873 352.577 425.453 354.633 429.287 342.675C433.574 343.628 437.965 344.03 442.354 343.87C442.354 343.87 434.43 361.746 439.366 364.826C444.303 367.906 446.878 376.385 446.878 376.385C460.855 364.186 451.395 344.397 451.395 344.397Z" fill="#FE7D1E"/>
<path d="M201.37 195.224L201.413 195.16L201.249 195.053L200.915 194.819L200.979 194.876C200.688 194.701 200.342 194.641 200.009 194.705C199.676 194.769 199.378 194.954 199.172 195.224L198.973 195.516L189.299 209.451L187.606 211.884C182.513 210.354 174.247 216.813 170.057 220.512L169.346 221.166C169.012 220.419 168.82 219.943 168.82 219.943C168.613 222.219 160.59 225.633 158.712 226.864C157.86 227.38 156.906 227.703 155.916 227.81C156.187 219.16 149.514 210.062 149.514 210.062L133.161 189.235C132.56 185.475 133.145 181.622 134.832 178.209C134.961 177.939 135.103 177.669 135.252 177.405H135.964H136.056C137.389 177.403 138.72 177.284 140.032 177.05C144.829 176.19 149.199 173.745 152.441 170.106C155.683 166.468 157.611 161.847 157.915 156.983C159.558 156.556 160.96 155.034 160.725 153.277C160.785 152.943 160.785 152.601 160.725 152.267C160.679 152.055 160.615 151.848 160.533 151.648V151.648C160.063 150.467 159.075 149.514 158.349 148.433C157.344 146.85 156.807 145.016 156.798 143.141C156.862 141.499 157.118 139.871 157.559 138.289C157.891 137.349 158.048 136.356 158.022 135.359V135.16C158.031 134.898 158.019 134.637 157.986 134.377C157.958 134.191 157.915 134.008 157.858 133.829V133.829C157.45 132.718 156.678 131.778 155.667 131.162C153.085 129.476 149.77 129.455 146.868 128.395C142.657 126.851 138.844 123.039 134.448 123.963C132.044 124.461 130.18 126.304 128.118 127.605C125.822 129.042 123.185 129.842 120.478 129.924C118.202 129.995 115.904 129.561 113.663 129.924C113.262 129.999 112.867 130.106 112.483 130.244C110.577 129.598 108.576 129.283 106.564 129.312C104.592 129.26 102.648 129.795 100.98 130.849C97.9572 132.983 97.1463 137.066 97.1961 140.736V140.822C97.1961 141.064 97.1961 141.298 97.1961 141.533C97.1961 143.29 97.3668 145.09 97.3953 146.832C97.4257 148.469 97.2025 150.101 96.7337 151.67C95.3111 156.016 91.349 159.338 90.5452 163.833C90.4152 164.608 90.3699 165.396 90.41 166.181C90.3531 168.727 91.1711 171.281 91.9251 173.749C93.483 178.849 94.7207 184.27 94.7278 189.562C94.6969 192.849 94.0428 196.1 92.8001 199.144C92.4299 200.031 91.9724 200.879 91.4343 201.676C91.2565 201.932 91.0644 202.174 90.8724 202.387L90.787 202.48C90.6163 202.679 90.4314 202.864 90.2464 203.049L90.0899 203.191C89.912 203.35 89.7243 203.497 89.528 203.632L89.343 203.774C89.0857 203.948 88.8145 204.1 88.5321 204.23L89.9192 204.151C89.4986 204.506 89.0321 204.803 88.5321 205.033L95.873 204.607C95.873 204.685 95.873 204.763 95.9086 204.848C95.8874 205.031 95.8517 205.212 95.8019 205.389C95.7532 205.561 95.6938 205.73 95.6241 205.894C95.6201 205.918 95.6201 205.942 95.6241 205.965C95.4729 206.293 95.2818 206.602 95.055 206.883L94.9981 206.954C94.8822 207.091 94.7587 207.222 94.6282 207.345V207.345C94.5031 207.459 94.37 207.564 94.2299 207.658L94.1374 207.722C93.9913 207.819 93.8392 207.907 93.6821 207.985V207.985C93.5289 208.051 93.3721 208.108 93.2126 208.156L93.0917 208.192C92.9241 208.241 92.7529 208.277 92.5796 208.298L93.2909 208.213C93.7533 208.156 94.2156 208.099 94.6709 208.021H94.806C94.2187 208.629 93.44 209.015 92.6009 209.116C94.1798 208.998 95.7391 208.692 97.2459 208.206C98.2062 214.608 100.326 234.191 99.1594 237.804C97.8078 241.702 101.009 269.914 101.009 269.914C101.009 269.914 101.443 272.048 102.204 275.306C100.241 279.936 97.9999 285.072 96.876 287.128C94.614 291.261 95.7308 312.33 103.506 321.698C103.506 321.698 106.728 326.237 105.881 327.894C105.035 329.551 106.024 332.439 106.024 332.439L107.254 359.705C107.234 362.504 107.049 365.3 106.699 368.077C103.385 372.189 98.2631 378.185 95.8517 379.167C92.1314 380.675 64.3469 414.42 64.3469 414.42C64.3469 414.42 64.5674 414.826 65.0014 415.487L64.2189 416.39L58.8839 422.572L58.4642 423.063C57.4684 422.871 50.8032 421.64 45.5181 421.277H44.9988V421.178C43.1419 420.968 41.2649 421.018 39.422 421.327H39.3793C39.0334 421.397 38.7149 421.565 38.4617 421.811C36.662 424.016 35.6875 458.722 35.6875 458.722C35.6875 458.722 37.6081 476.057 43.5833 477.06C43.8929 477.166 44.2164 477.226 44.5435 477.238H44.6076C44.7188 477.248 44.8307 477.248 44.9419 477.238C49.2099 476.925 51.1945 474.456 52.0552 472.778C52.3154 472.269 52.5159 471.732 52.6527 471.177C52.6527 471.177 51.9414 468.076 53.8335 463.808C55.7256 459.54 59.1827 452.099 59.1827 452.099C59.1827 452.099 65.5277 445.42 64.3967 442.176L65.0085 441.294C67.3985 437.894 72.2142 431.179 76.1123 426.691L76.8805 425.83C78.2992 426.433 79.7844 426.865 81.305 427.117C81.305 427.117 87.2802 424.777 89.5066 419.542C90.4527 417.315 94.1587 413.374 98.1066 409.583C98.0212 410.237 97.9786 410.6 97.9786 410.6L97.8434 443.784C99.1267 444.668 100.494 445.423 101.926 446.039C101.926 446.302 101.926 446.579 101.926 446.857C101.957 451.589 101.672 456.318 101.073 461.012C101.037 461.261 100.995 461.503 100.952 461.723C100.461 461.375 100.034 461.254 99.764 461.531C98.5405 462.769 97.7794 470.686 97.7082 474.335C97.7082 474.406 97.7082 474.478 97.7082 474.542C97.6229 476.057 97.2174 477.849 97.2174 479.457C97.1819 481.79 97.9288 483.725 101.677 483.91C106.358 484.109 126.489 484.415 137.244 484.571C143.058 484.693 148.717 482.687 153.156 478.931C155.134 477.238 156.649 475.374 156.713 473.581C156.813 472.223 156.073 470.914 154.017 469.783C154.017 469.825 154.017 469.868 153.974 469.918C153.704 469.769 153.412 469.626 153.092 469.484L142.742 467.862L125.102 458.843C125.102 458.843 124.995 453.394 122.875 454.297C122.245 454.436 121.642 454.676 121.09 455.009C120.983 454.809 120.876 454.596 120.77 454.375C119.338 451.523 118.593 448.376 118.593 445.185C118.593 444.893 118.593 444.602 118.636 444.303C119.155 443.836 119.642 443.335 120.094 442.802C120.094 442.802 119.959 430.411 121.346 428.063C122.733 425.716 127.036 402.036 127.036 402.036C127.036 402.036 127.179 397.633 129.953 395.015C132.727 392.397 131.76 384.822 131.76 384.822C131.76 384.822 135.651 382.759 136.902 376.008C138.154 369.258 142.181 354.526 142.181 354.526C142.181 354.526 150.517 332.767 149.962 318.995C149.408 305.224 150.795 298.061 150.795 298.061L152.53 266.051V265.553C153.242 266.08 153.683 266.506 153.683 266.506C153.683 266.506 153.683 266.378 153.683 266.158L154.081 266.506C154.081 266.506 154.963 251.988 154.664 246.226C159.53 244.576 166.928 241.859 167.347 240.479C167.973 238.416 176.303 231.907 176.303 231.907C176.125 231.871 175.955 231.807 175.798 231.715C176.061 231.594 176.331 231.452 176.623 231.296C182.086 228.372 192.237 219.815 190.53 214.587L201.626 198.617C201.978 198.107 202.144 197.493 202.097 196.876C202.05 196.258 201.794 195.675 201.37 195.224V195.224ZM110.967 179.667C110.696 179.675 110.426 179.696 110.157 179.731C109.675 176.882 108.996 174.071 108.122 171.316C106.835 166.992 105.455 162.638 105.241 158.135C105.241 157.943 105.241 157.744 105.241 157.545C105.27 156.361 105.425 155.183 105.704 154.031C105.974 154.522 106.266 155.006 106.571 155.454C108.343 158.135 110.42 160.682 111.515 163.705C111.897 165.138 112.414 166.531 113.059 167.866C113.82 169.14 115.193 170.2 116.701 170C117.207 169.917 117.681 169.698 118.074 169.367C116.083 173.047 113.701 176.5 110.967 179.667Z" fill="url(#paint0_linear)"/>
<path d="M174.645 234.746C173.845 235.249 172.953 235.587 172.021 235.741C168.599 235.841 165.782 226.58 165.782 226.58C165.782 226.58 166.757 225.598 168.307 224.218C172.888 220.135 182.534 212.609 187.015 216.82C192.059 221.543 180.528 231.559 174.645 234.746Z" fill="#ECB4B6"/>
<path d="M122.676 455.492L110.064 469.086C110.064 469.086 98.3911 469.214 100.675 462.776C101.128 461.387 101.452 459.958 101.642 458.508C102.221 453.936 102.497 449.331 102.467 444.723C102.467 441.7 102.417 439.58 102.417 439.58C102.417 439.58 120.798 431.528 118.92 439.914C118.685 440.963 118.559 442.033 118.543 443.108C118.539 446.216 119.258 449.281 120.642 452.064C121.206 453.27 121.887 454.419 122.676 455.492V455.492Z" fill="#ECB4B6"/>
<path opacity="0.1" d="M122.676 455.492L110.064 469.086C110.064 469.086 98.3911 469.214 100.675 462.776C101.128 461.386 101.452 459.958 101.642 458.508C103.306 459.796 105.704 463.594 105.704 463.594C105.704 463.594 113.756 465.942 115.968 458.899C117.206 454.959 119.162 453.01 120.642 452.063C121.206 453.27 121.887 454.419 122.676 455.492V455.492Z" fill="black"/>
<path d="M151.947 476.007C147.666 479.654 142.198 481.608 136.575 481.498C126.175 481.342 106.699 481.043 102.211 480.851C96.1785 480.595 98.1774 475.438 98.3766 471.881C98.3766 471.76 98.3766 471.646 98.3766 471.525C98.4406 467.969 99.1803 460.258 100.361 459.049C101.542 457.839 105.689 464.412 105.689 464.412C105.689 464.412 113.741 466.767 115.953 459.717C118.166 452.668 122.676 452.014 122.676 452.014C124.724 451.124 124.81 456.438 124.81 456.438L141.881 465.223L151.883 466.802C152.203 466.952 152.502 467.101 152.772 467.243C157.253 469.74 155.254 473.14 151.947 476.007Z" fill="#79B1B2"/>
<path opacity="0.25" d="M120.463 462.477C120.872 462.477 121.203 462.146 121.203 461.738C121.203 461.329 120.872 460.998 120.463 460.998C120.055 460.998 119.724 461.329 119.724 461.738C119.724 462.146 120.055 462.477 120.463 462.477Z" fill="white"/>
<path opacity="0.25" d="M127.371 465.899C127.779 465.899 128.11 465.568 128.11 465.159C128.11 464.751 127.779 464.419 127.371 464.419C126.962 464.419 126.631 464.751 126.631 465.159C126.631 465.568 126.962 465.899 127.371 465.899Z" fill="white"/>
<path opacity="0.25" d="M130.927 467.492C131.336 467.492 131.667 467.161 131.667 466.752C131.667 466.344 131.336 466.013 130.927 466.013C130.519 466.013 130.188 466.344 130.188 466.752C130.188 467.161 130.519 467.492 130.927 467.492Z" fill="white"/>
<path opacity="0.25" d="M138.311 470.323C138.719 470.323 139.05 469.992 139.05 469.584C139.05 469.175 138.719 468.844 138.311 468.844C137.902 468.844 137.571 469.175 137.571 469.584C137.571 469.992 137.902 470.323 138.311 470.323Z" fill="white"/>
<path opacity="0.25" d="M134.555 469.114C134.963 469.114 135.294 468.783 135.294 468.374C135.294 467.966 134.963 467.635 134.555 467.635C134.146 467.635 133.815 467.966 133.815 468.374C133.815 468.783 134.146 469.114 134.555 469.114Z" fill="white"/>
<path d="M151.947 476.007C147.666 479.654 142.198 481.608 136.575 481.499C126.175 481.342 106.699 481.043 102.211 480.851C96.1785 480.595 98.1774 475.438 98.3766 471.881L136.297 474.222C136.297 474.222 151.826 471.867 152.751 467.236C157.253 469.74 155.254 473.14 151.947 476.007Z" fill="#79B1B2"/>
<path opacity="0.25" d="M151.947 475.85C147.669 479.504 142.199 481.458 136.575 481.342C126.175 481.193 106.699 480.894 102.218 480.702C96.1785 480.439 98.1774 475.281 98.3765 471.725L136.297 474.065C136.297 474.065 151.826 471.711 152.75 467.087C157.253 469.591 155.254 472.991 151.947 475.85Z" fill="white"/>
<path d="M81.3474 421.277C79.9483 422.411 78.6727 423.689 77.5418 425.09C73.7789 429.465 69.1268 436.009 66.8149 439.317L65.3923 441.408L60.349 440.633C60.349 440.633 54.9144 432.317 54.9856 432.097C55.0567 431.876 59.2535 422.97 59.2535 422.97L60.8896 421.057L66.0396 415.032L68.3728 412.3C68.3728 412.3 85.9141 417.991 81.3474 421.277Z" fill="#ECB4B6"/>
<path opacity="0.1" d="M66.8149 439.317L65.3923 441.408L60.349 440.633C60.349 440.633 54.9144 432.317 54.9856 432.097C55.0567 431.876 59.2535 422.97 59.2535 422.97L60.8896 421.057L61.4231 421.149H62.7035C58.2008 425.844 63.0378 436.18 63.0378 436.18C63.0378 436.18 65.1504 436.429 66.8149 439.317Z" fill="black"/>
<path d="M61.1741 449.88C61.1741 449.88 57.8167 457.128 56.0028 461.261C54.1889 465.394 54.8647 468.438 54.8647 468.438C54.7389 468.98 54.5453 469.503 54.2885 469.996C53.4633 471.639 51.557 474.036 47.417 474.342C47.3105 474.349 47.2035 474.349 47.097 474.342C40.9795 474.179 39.0376 456.424 39.0376 456.424C39.0376 456.424 39.9694 422.607 41.7122 420.459C41.956 420.219 42.2653 420.055 42.6013 419.99C44.3821 419.68 46.1986 419.632 47.9932 419.847C53.5274 420.246 60.6335 421.604 60.6335 421.604H61.9139C57.4112 426.299 62.2411 436.628 62.2411 436.628C62.2411 436.628 64.3751 436.834 66.0681 439.85C67.761 442.866 61.1741 449.88 61.1741 449.88Z" fill="#79B1B2"/>
<path opacity="0.25" d="M53.8047 440.533C54.2133 440.533 54.5445 440.202 54.5445 439.793C54.5445 439.384 54.2133 439.053 53.8047 439.053C53.3962 439.053 53.0649 439.384 53.0649 439.793C53.0649 440.202 53.3962 440.533 53.8047 440.533Z" fill="white"/>
<path opacity="0.25" d="M53.4419 446.394C53.8505 446.394 54.1817 446.063 54.1817 445.655C54.1817 445.246 53.8505 444.915 53.4419 444.915C53.0334 444.915 52.7021 445.246 52.7021 445.655C52.7021 446.063 53.0334 446.394 53.4419 446.394Z" fill="white"/>
<path d="M53.8049 469.861C53.1611 471.141 52.1818 472.222 50.9716 472.989C49.7614 473.755 48.3657 474.179 46.9334 474.214H46.6133C40.4959 474.065 38.5469 456.282 38.5469 456.282C38.5469 456.282 39.4858 422.472 41.2286 420.324C41.4694 420.078 41.7797 419.912 42.1177 419.848C43.8969 419.545 45.7099 419.498 47.5025 419.705C47.4029 425.78 47.1113 444.993 47.5381 446.899C47.9649 448.806 51.3721 464.754 53.8049 469.861Z" fill="#79B1B2"/>
<path opacity="0.25" d="M54.2458 469.989C53.6017 471.268 52.6222 472.348 51.4119 473.114C50.2016 473.879 48.806 474.301 47.3744 474.335C47.2678 474.342 47.1608 474.342 47.0543 474.335C40.9297 474.172 38.9878 456.417 38.9878 456.417C38.9878 456.417 39.9267 422.6 41.6695 420.452C41.9093 420.21 42.2169 420.046 42.5516 419.983C44.3324 419.673 46.1488 419.625 47.9434 419.84C47.8438 425.915 47.5522 445.128 47.9434 447.034C48.3346 448.941 51.8059 464.875 54.2458 469.989Z" fill="white"/>
<path d="M46.6133 474.215C40.4959 474.065 38.5469 456.282 38.5469 456.282C38.5469 456.282 39.4858 422.472 41.2286 420.324C41.4694 420.078 41.7797 419.912 42.1177 419.848C43.3981 421.761 44.522 425.986 43.5404 435.283C41.6269 452.896 43.9316 453.999 43.9316 453.999C43.9316 453.999 46.7556 468.958 46.6133 474.215Z" fill="#79B1B2"/>
<path opacity="0.1" d="M46.5635 474.215C40.4461 474.065 38.4971 456.282 38.4971 456.282C38.4971 456.282 39.436 422.472 41.1788 420.324C41.4196 420.078 41.7299 419.912 42.0679 419.848C43.3483 421.761 44.4722 425.986 43.4906 435.283C41.5771 452.896 43.8818 453.999 43.8818 453.999C43.8818 453.999 46.6987 468.958 46.5635 474.215Z" fill="black"/>
<path opacity="0.1" d="M174.645 234.746C173.845 235.249 172.953 235.587 172.021 235.742C168.599 235.841 165.782 226.58 165.782 226.58C165.782 226.58 166.757 225.598 168.307 224.218C169.396 226.743 172.483 233.494 174.645 234.746Z" fill="black"/>
<path d="M152.701 231.417C152.701 231.417 155.546 231.616 157.332 230.406C159.117 229.197 166.892 225.875 167.091 223.663C167.091 223.663 171.722 234.938 174.339 235.336C174.339 235.336 166.287 241.681 165.683 243.694C165.078 245.707 149.379 250.637 149.379 250.637L152.701 231.417Z" fill="#FF748E"/>
<path d="M152.701 231.417C152.701 231.417 155.546 231.616 157.332 230.406C159.117 229.197 166.892 225.875 167.091 223.663C167.091 223.663 171.722 234.938 174.339 235.336C174.339 235.336 166.287 241.681 165.683 243.694C165.078 245.707 149.379 250.637 149.379 250.637L152.701 231.417Z" fill="#79B1B2"/>
<path opacity="0.1" d="M81.3477 421.277C79.9486 422.411 78.673 423.689 77.5421 425.09C71.4745 422.543 67.5835 417.358 66.0684 415.082L68.4015 412.35C68.4015 412.35 85.9144 417.991 81.3477 421.277Z" fill="black"/>
<path d="M110.064 364.186C110.064 364.186 100.219 377.331 96.6196 378.811C93.0203 380.291 66.189 413.161 66.189 413.161C66.189 413.161 71.9578 423.76 82.5495 425.503C82.5495 425.503 88.3184 423.219 90.4666 418.126C92.6148 413.033 109.544 398.664 109.544 398.664L110.064 364.186Z" fill="#5E5A6B"/>
<path opacity="0.1" d="M110.064 364.186C110.064 364.186 100.219 377.331 96.6196 378.811C93.0203 380.291 66.189 413.161 66.189 413.161C66.189 413.161 71.9578 423.76 82.5495 425.503C82.5495 425.503 88.3184 423.219 90.4666 418.126C92.6148 413.033 109.544 398.664 109.544 398.664L110.064 364.186Z" fill="black"/>
<path opacity="0.1" d="M80.2451 408.224C83.222 408.54 86.2239 408.54 89.2007 408.224C94.5357 407.726 90.5096 410.942 80.2451 408.224Z" fill="black"/>
<path opacity="0.1" d="M77.8267 411.646C77.8267 411.646 84.8759 415.672 87.5932 413.659C90.3105 411.646 84.9684 415.601 77.8267 411.646Z" fill="black"/>
<path opacity="0.1" d="M118.92 439.921C118.685 440.97 118.559 442.04 118.543 443.115C113.101 448.052 106.557 446.522 102.467 444.73C102.467 441.707 102.417 439.587 102.417 439.587C102.417 439.587 120.798 431.542 118.92 439.921Z" fill="black"/>
<path d="M151.513 264.892L151.307 268.605L149.649 299.79C149.649 299.79 148.305 306.768 148.846 320.19C149.386 333.613 141.327 354.804 141.327 354.804C141.327 354.804 137.436 369.165 136.227 375.738C135.017 382.311 131.247 384.324 131.247 384.324C131.247 384.324 132.186 391.708 129.505 394.283C126.823 396.858 126.659 401.125 126.659 401.125C126.659 401.125 122.498 424.201 121.161 426.484C119.823 428.768 119.951 440.846 119.951 440.846C111.23 451.175 98.4835 441.785 98.4835 441.785L98.6186 409.448C98.6186 409.448 102.239 379.658 104.921 375.496C107.603 371.335 107.603 359.932 107.603 359.932L106.415 333.364C106.415 333.364 105.462 330.519 106.28 328.94C107.098 327.361 103.982 322.901 103.982 322.901C96.4704 313.774 95.3963 293.245 97.5801 289.219C99.7639 285.193 106.28 269.096 106.28 269.096L115.257 263.86L131.475 264.344L151.513 264.892Z" fill="#5E5A6B"/>
<path opacity="0.1" d="M113.35 423.02C113.35 423.02 115.484 430.368 117.184 431.172C118.884 431.976 113.35 423.02 113.35 423.02Z" fill="black"/>
<path opacity="0.1" d="M116.274 398.564C116.274 398.564 121.772 402.904 124.099 402.896C126.425 402.889 116.274 398.564 116.274 398.564Z" fill="black"/>
<path d="M149.379 216.92V225.811L143.532 223.293L137.706 220.782L125.023 208.306C125.023 208.306 114.993 201.783 109.623 195.843C106.557 192.457 105.014 189.256 107.717 187.57C109.022 186.711 110.203 185.674 111.223 184.49C113.925 181.315 116.272 177.854 118.223 174.169L118.472 173.714C121.082 168.926 122.811 164.829 122.811 164.829C122.811 164.829 130.166 167.191 134.904 170.52C135.288 170.783 135.65 171.06 135.992 171.338C138.631 173.507 139.94 176.011 137.514 178.508C136.883 179.152 136.303 179.844 135.779 180.578V180.578C135.388 181.123 135.029 181.691 134.704 182.278C134.555 182.534 134.42 182.797 134.292 183.06C132.663 186.39 132.102 190.141 132.684 193.802L149.379 216.92Z" fill="#ECB4B6"/>
<path opacity="0.1" d="M137.507 178.479C136.876 179.124 136.295 179.816 135.771 180.549V180.549C135.38 181.095 135.022 181.662 134.697 182.249C134.548 182.506 134.412 182.769 134.284 183.032C131.182 182.863 128.156 182.01 125.422 180.534C122.689 179.059 120.315 176.997 118.472 174.496C118.386 174.375 118.301 174.261 118.223 174.14L118.472 173.685C121.082 168.898 122.811 164.801 122.811 164.801C122.811 164.801 130.166 167.162 134.903 170.491C135.287 170.754 135.65 171.032 135.992 171.309C138.624 173.479 139.932 176.018 137.507 178.479Z" fill="black"/>
<path d="M156.606 161.13C156.608 163.906 156.063 166.655 155.001 169.22C153.94 171.785 152.383 174.115 150.421 176.078C148.458 178.041 146.127 179.597 143.562 180.659C140.997 181.72 138.248 182.266 135.473 182.264H135.38H134.669C130.523 182.113 126.513 180.746 123.138 178.332C119.764 175.918 117.174 172.565 115.692 168.69C114.209 164.815 113.9 160.59 114.802 156.54C115.704 152.491 117.778 148.796 120.765 145.917C123.752 143.037 127.52 141.1 131.6 140.347C135.68 139.594 139.891 140.059 143.71 141.682C147.528 143.306 150.783 146.016 153.072 149.477C155.36 152.938 156.579 156.996 156.578 161.144L156.606 161.13Z" fill="#ECB4B6"/>
<path opacity="0.1" d="M138.24 213.363C138.24 213.363 148.909 219.374 146.157 214.302L132.307 193.802L148.07 214.067C148.07 214.067 158.135 227.888 152.637 237.413C152.637 237.413 151.833 245.33 152.772 247.208C153.711 249.086 152.502 269.081 152.502 269.081C152.502 269.081 148.746 265.589 146.733 266.236C144.72 266.883 130.493 268.114 130.493 268.114L138.24 213.363Z" fill="black"/>
<path opacity="0.1" d="M151.513 264.892L151.307 268.605C150.033 267.68 148.262 266.642 147.081 267.04C145.111 267.709 130.884 268.918 130.884 268.918L131.539 264.301L151.513 264.892Z" fill="black"/>
<path d="M138.645 213.363C138.645 213.363 149.315 219.374 146.562 214.302L132.677 193.802L148.44 214.067C148.44 214.067 158.505 227.888 152.999 237.413C152.999 237.413 152.196 245.33 153.135 247.208C154.074 249.086 152.864 269.081 152.864 269.081C152.864 269.081 149.109 265.589 147.095 266.236C145.082 266.883 130.884 268.114 130.884 268.114L138.645 213.363Z" fill="#464353"/>
<path opacity="0.1" d="M144.336 223.677C143.71 230.122 141.057 237.797 141.057 237.797C141.057 237.797 139.186 256.854 136.789 262.495C134.391 268.135 135.444 275.91 134.107 290.236C133.623 295.408 131.973 298.957 129.711 301.355C126.012 305.295 120.741 306.12 116.573 305.879L115.584 305.8C108.876 305.132 102.439 272.795 102.439 272.795C102.439 272.795 99.3514 245.288 100.561 241.532C101.77 237.776 99.3514 216.301 98.5476 211.606C98.0354 208.633 99.5719 203.782 100.767 200.602C101.478 198.781 102.033 197.515 102.033 197.515C102.033 197.515 104.316 190.273 108.072 186.518C108.59 185.986 109.21 185.564 109.894 185.277C110.578 184.989 111.314 184.843 112.056 184.846C113.825 184.909 115.545 185.447 117.035 186.404L117.206 186.518C117.206 186.518 141.626 211.471 143.902 217.24C144.514 218.869 144.578 221.174 144.336 223.677Z" fill="black"/>
<path d="M143.532 223.258C142.906 229.709 140.253 237.385 140.253 237.385C140.253 237.385 138.375 256.441 135.985 262.075C133.595 267.708 134.64 275.49 133.296 289.817C132.819 294.981 131.162 298.53 128.9 300.935C125.208 304.875 119.937 305.693 115.769 305.452C115.427 305.452 115.107 305.409 114.78 305.373C108.072 304.705 101.635 272.368 101.635 272.368C101.635 272.368 98.5477 244.861 99.7569 241.105C100.966 237.349 98.5477 215.881 97.7439 211.179C97.2317 208.206 98.7682 203.355 99.9632 200.182C100.675 198.354 101.229 197.095 101.229 197.095C101.229 197.095 103.513 189.846 107.269 186.091C107.785 185.56 108.404 185.138 109.087 184.851C109.77 184.564 110.504 184.417 111.245 184.419C113.014 184.487 114.732 185.024 116.224 185.977L116.402 186.091C116.402 186.091 140.822 211.051 143.098 216.82C143.689 218.463 143.774 220.768 143.532 223.258Z" fill="#79B1B2"/>
<path opacity="0.1" d="M116.167 321.478C116.167 321.478 110.633 326.415 108.719 326.208C106.806 326.002 116.167 321.478 116.167 321.478Z" fill="black"/>
<path opacity="0.1" d="M117.64 326.215C117.64 326.215 111.807 328.925 110.064 329.331C108.321 329.736 115.392 325.518 117.64 326.215Z" fill="black"/>
<path opacity="0.1" d="M140.224 252.13C140.224 252.13 148.874 252.23 150.183 254.976C151.492 257.721 143.041 251.035 140.224 252.13Z" fill="black"/>
<path opacity="0.1" d="M139.015 256.875C139.015 256.875 145.659 258.298 147.665 259.891C149.671 261.484 139.015 256.875 139.015 256.875Z" fill="black"/>
<path opacity="0.1" d="M127.847 240.472C127.847 240.472 127.043 267.78 124.07 271.265C121.097 274.751 127.847 240.472 127.847 240.472Z" fill="black"/>
<path opacity="0.1" d="M120.4 317.573C120.4 317.573 114.873 341.623 125.983 343.131C137.094 344.639 133.68 315.759 133.68 315.759L120.4 317.573Z" fill="black"/>
<path d="M119.994 317.153C119.994 317.153 114.467 341.203 125.585 342.718C136.703 344.233 133.274 315.339 133.274 315.339L119.994 317.153Z" fill="#ECB4B6"/>
<path opacity="0.1" d="M129.504 216.187C128.935 201.733 108.705 198.745 103.989 212.417L103.89 212.694C100.809 221.942 102.147 245.416 102.147 245.416C102.147 245.416 102.552 261.157 104.025 266.386C105.497 271.614 109.658 286.651 109.658 289.063C109.658 291.474 113.514 300.736 115.143 301.411C116.772 302.087 117.59 307.315 117.988 308.254C118.386 309.193 119.589 321.4 119.589 321.4C119.589 321.4 134.754 320.461 135.024 318.049C135.295 315.638 131.667 303.823 131.667 303.823C131.667 303.823 128.992 298.993 128.651 295.102C128.309 291.211 126.168 289.468 126.567 286.786C126.965 284.105 125.357 282.76 125.357 281.01C125.357 279.261 124.155 274.573 124.155 274.573C124.155 274.573 121.602 272.56 122.021 270.148C122.441 267.737 118.401 262.9 119.475 261.157C120.549 259.415 120.812 255.118 120.812 255.118C120.812 255.118 122.142 235.77 123.06 230.542C123.977 225.313 129.462 216.856 129.462 216.856C129.462 216.856 129.519 216.614 129.504 216.187Z" fill="black"/>
<path opacity="0.1" d="M128.878 300.97C125.186 304.911 119.915 305.729 115.747 305.487C115.271 303.659 114.566 301.411 113.535 300.984C111.906 300.316 108.051 291.026 108.051 288.643C108.051 286.26 103.889 271.194 102.417 265.966C100.944 260.737 100.539 245.017 100.539 245.017C100.539 245.017 99.1945 221.543 102.282 212.296C102.317 212.203 102.346 212.111 102.374 212.011C107.097 198.34 127.32 201.342 127.897 215.789C127.897 216.215 127.897 216.45 127.897 216.45C127.897 216.45 122.391 224.901 121.495 230.136C120.598 235.371 119.211 254.691 119.211 254.691C119.211 254.691 118.941 258.959 117.867 260.73C116.793 262.502 120.819 267.31 120.421 269.722C120.022 272.133 122.555 274.153 122.555 274.153C122.555 274.153 123.764 278.841 123.764 280.591C123.764 282.34 125.371 283.678 124.973 286.359C124.575 289.041 126.716 290.784 127.057 294.682C127.345 296.858 127.959 298.978 128.878 300.97Z" fill="black"/>
<path d="M128.701 215.789C128.125 201.334 107.902 198.34 103.178 212.019C103.178 212.111 103.121 212.204 103.086 212.296C99.9987 221.543 101.343 245.017 101.343 245.017C101.343 245.017 101.749 260.752 103.221 265.987C104.693 271.223 108.833 286.224 108.833 288.643C108.833 291.061 112.689 300.316 114.318 300.985C115.947 301.653 116.765 306.889 117.163 307.827C117.561 308.766 118.792 320.98 118.792 320.98C118.792 320.98 133.958 320.041 134.221 317.623C134.484 315.204 130.87 303.396 130.87 303.396C130.87 303.396 128.196 298.566 127.854 294.675C127.513 290.784 125.365 289.034 125.77 286.352C126.176 283.671 124.561 282.326 124.561 280.584C124.561 278.841 123.359 274.139 123.359 274.139C123.359 274.139 120.805 272.126 121.225 269.715C121.644 267.303 117.597 262.466 118.671 260.723C119.745 258.981 120.015 254.684 120.015 254.684C120.015 254.684 121.36 235.364 122.299 230.129C123.238 224.894 128.701 216.443 128.701 216.443C128.701 216.443 128.751 216.215 128.701 215.789Z" fill="#79B1B2"/>
<path opacity="0.1" d="M103.79 252.949C104.195 252.543 111.842 244.093 114.261 247.116C116.679 250.139 103.79 252.949 103.79 252.949Z" fill="black"/>
<path opacity="0.1" d="M104.494 259.493C104.8 259.187 112.141 258.888 113.955 254.762C115.769 250.637 104.494 259.493 104.494 259.493Z" fill="black"/>
<g opacity="0.1">
<path opacity="0.1" d="M96.1217 185.266C96.3028 185.473 96.4407 185.715 96.5271 185.977C96.6736 185.519 96.7132 185.033 96.643 184.557C96.5727 184.081 96.3944 183.628 96.1217 183.231C95.766 182.826 95.2396 182.577 94.9195 182.143C94.9195 182.107 94.8768 182.065 94.8484 182.029C94.6718 182.36 94.5854 182.731 94.5979 183.106C94.6104 183.48 94.7213 183.845 94.9195 184.163C95.2396 184.633 95.766 184.874 96.1217 185.266Z" fill="black"/>
<path opacity="0.1" d="M106.365 159.202C106.365 158.441 106.4 157.68 106.365 156.926C106.23 154.188 105.717 151.378 105.604 148.632C105.44 151.997 106.194 155.525 106.365 158.939C106.365 159.025 106.365 159.117 106.365 159.202Z" fill="black"/>
</g>
<path d="M177.576 228.998L177.988 229.283C177.626 229.034 177.378 228.651 177.298 228.219C177.218 227.786 177.313 227.34 177.562 226.978L196.213 199.905C196.463 199.542 196.847 199.293 197.28 199.213C197.714 199.133 198.161 199.229 198.524 199.478L198.105 199.193C198.395 199.39 198.644 199.642 198.836 199.934C199.029 200.227 199.162 200.555 199.228 200.899C199.294 201.243 199.292 201.597 199.221 201.94C199.151 202.284 199.013 202.609 198.816 202.899L181.303 228.315C181.106 228.608 180.852 228.858 180.556 229.051C180.261 229.244 179.93 229.376 179.583 229.439C179.236 229.503 178.88 229.497 178.535 229.421C178.19 229.345 177.864 229.201 177.576 228.998Z" fill="#464353"/>
<path d="M198.195 199.24L198.628 199.538L178.097 229.344L177.681 229.057C177.411 228.871 177.226 228.585 177.166 228.262C177.107 227.939 177.178 227.606 177.364 227.336L196.491 199.569C196.675 199.302 196.957 199.117 197.275 199.056C197.594 198.994 197.924 199.06 198.195 199.24V199.24Z" fill="#9F9EFF"/>
<path d="M194.379 203.109L194.303 203.056C194.248 203.018 194.173 203.032 194.135 203.087L192.59 205.309C192.552 205.364 192.565 205.439 192.62 205.477L192.696 205.53C192.751 205.568 192.826 205.554 192.864 205.5L194.409 203.277C194.447 203.223 194.433 203.147 194.379 203.109Z" fill="#464353"/>
<path opacity="0.1" d="M159.252 158.541C158.954 157.118 157.773 156.03 156.962 154.807C154.927 151.741 155.247 147.693 156.201 144.137C156.546 143.168 156.691 142.14 156.627 141.113C156.493 140.463 156.224 139.849 155.838 139.308C155.453 138.768 154.958 138.314 154.387 137.976C151.897 136.333 148.696 136.312 145.894 135.281C141.825 133.773 138.14 130.059 133.893 130.963C131.574 131.454 129.789 133.246 127.783 134.519C125.57 135.917 123.023 136.698 120.407 136.781C118.209 136.845 115.982 136.419 113.82 136.781C113.431 136.847 113.05 136.952 112.682 137.094C110.852 136.463 108.927 136.153 106.991 136.177C105.085 136.134 103.209 136.656 101.599 137.678C98.6755 139.741 97.9002 143.731 97.9429 147.309C97.9855 150.887 98.5902 154.565 97.4947 157.979C96.1361 162.247 92.2949 165.448 91.5267 169.83C90.9932 172.803 91.9819 175.812 92.8569 178.707C95.375 187.023 97.0395 196.213 93.6962 204.237C92.8498 206.271 91.5622 208.284 89.5776 209.216L96.6909 208.803C96.842 209.814 96.5861 210.844 95.9795 211.667C95.3728 212.489 94.4648 213.038 93.4544 213.192C95.2431 213.082 97.0019 212.681 98.6613 212.004C99.4878 211.655 100.218 211.111 100.789 210.418C101.359 209.726 101.755 208.906 101.941 208.028C102.076 207.075 101.877 206.072 102.14 205.14C102.602 203.547 104.274 202.665 105.561 201.648C109.025 198.952 110.661 194.406 110.797 190.017C110.932 185.628 109.765 181.311 108.52 177.1C107.275 172.888 105.938 168.642 105.739 164.296C105.655 162.689 105.803 161.079 106.18 159.516C106.436 159.992 106.721 160.462 107.012 160.903C108.727 163.52 110.733 166.003 111.785 168.948C112.153 170.341 112.653 171.697 113.279 172.995C113.99 174.24 115.37 175.271 116.8 175.051C118.23 174.83 119.297 173.294 119.766 171.829C120.236 170.363 120.442 168.763 121.331 167.511C123.024 165.149 126.403 164.936 129.305 165.021C135.423 165.213 143.859 166.145 148.646 161.465C149.557 160.575 149.991 159.21 151.413 159.544C152.687 159.843 153.398 161.913 154.757 162.389C156.94 163.079 159.764 161.002 159.252 158.541Z" fill="black"/>
<path d="M159.252 157.759C158.954 156.336 157.773 155.248 156.962 154.024C154.927 150.958 155.247 146.911 156.201 143.354C156.546 142.386 156.691 141.357 156.627 140.331C156.493 139.681 156.224 139.066 155.838 138.526C155.453 137.986 154.958 137.532 154.387 137.194C151.897 135.551 148.696 135.53 145.894 134.498C141.825 132.99 138.14 129.277 133.893 130.18C131.574 130.671 129.789 132.464 127.783 133.737C125.57 135.135 123.023 135.916 120.407 135.999C118.209 136.063 115.982 135.636 113.82 135.999C113.431 136.065 113.05 136.17 112.682 136.312C110.852 135.681 108.927 135.37 106.991 135.394C105.085 135.351 103.209 135.873 101.599 136.895C98.6755 138.958 97.9002 142.949 97.9429 146.527C97.9855 150.105 98.5902 153.782 97.4947 157.197C96.1361 161.429 92.2949 164.666 91.5267 169.047C90.9932 172.021 91.9819 175.03 92.8569 177.925C95.375 186.24 97.0395 195.43 93.6962 203.454C92.8498 205.489 91.5622 207.502 89.5776 208.434L96.6909 208.014C96.842 209.025 96.5861 210.054 95.9795 210.877C95.3728 211.7 94.4648 212.248 93.4544 212.403C95.2431 212.293 97.0019 211.892 98.6613 211.215C99.4878 210.865 100.218 210.321 100.789 209.629C101.359 208.937 101.755 208.116 101.941 207.239C102.076 206.285 101.877 205.282 102.14 204.351C102.602 202.757 104.274 201.875 105.561 200.858C109.025 198.162 110.661 193.617 110.797 189.228C110.932 184.839 109.765 180.521 108.52 176.31C107.275 172.099 105.938 167.852 105.739 163.47C105.655 161.864 105.803 160.254 106.18 158.69C106.436 159.167 106.721 159.636 107.012 160.113C108.727 162.731 110.733 165.213 111.785 168.158C112.153 169.552 112.653 170.907 113.279 172.206C113.99 173.45 115.37 174.482 116.8 174.261C118.23 174.041 119.297 172.504 119.766 171.039C120.236 169.574 120.442 167.973 121.331 166.721C123.024 164.36 126.403 164.146 129.305 164.232C135.423 164.424 143.859 165.356 148.646 160.675C149.557 159.786 149.991 158.42 151.413 158.754C152.687 159.053 153.398 161.123 154.757 161.6C156.94 162.297 159.764 160.22 159.252 157.759Z" fill="#464353"/>
<g opacity="0.1">
<path opacity="0.1" d="M97.9426 145.161C97.9426 145.623 97.907 146.092 97.9426 146.548C97.9426 148.042 98.0706 149.55 98.1204 151.05C98.1631 149.109 98.0066 147.124 97.9426 145.161Z" fill="black"/>
<path opacity="0.1" d="M95.5168 192.165C95.7017 186.638 94.4427 180.933 92.828 175.584C92.1658 173.666 91.6894 171.689 91.4053 169.68C91.1065 172.454 91.9957 175.243 92.828 177.932C94.3247 182.543 95.2283 187.326 95.5168 192.165Z" fill="black"/>
<path opacity="0.1" d="M155.503 147.252C155.618 145.933 155.856 144.628 156.214 143.354C156.559 142.385 156.705 141.357 156.641 140.331C156.614 140.15 156.571 139.971 156.513 139.797C156.428 140.203 156.321 140.608 156.214 141.014C155.621 143.037 155.381 145.147 155.503 147.252V147.252Z" fill="black"/>
<path opacity="0.1" d="M96.6409 205.674L92.3729 205.923C91.6821 206.999 90.7139 207.868 89.5703 208.441L96.2568 208.042C96.6554 207.321 96.7912 206.484 96.6409 205.674V205.674Z" fill="black"/>
<path opacity="0.1" d="M159.067 157.154C158.701 157.956 158.061 158.602 157.262 158.975C156.463 159.348 155.557 159.423 154.707 159.188C153.348 158.726 152.637 156.656 151.363 156.343C149.941 156.009 149.507 157.374 148.596 158.263C143.809 162.965 135.373 162.033 129.255 161.82C126.353 161.735 122.974 161.948 121.281 164.31C120.392 165.562 120.193 167.155 119.716 168.627C119.24 170.1 118.294 171.615 116.75 171.85C115.207 172.085 113.962 171.039 113.229 169.794C112.603 168.496 112.103 167.14 111.735 165.747C110.682 162.802 108.677 160.319 106.962 157.702C106.671 157.26 106.386 156.791 106.13 156.314C105.753 157.878 105.605 159.488 105.689 161.095C105.689 161.208 105.689 161.322 105.689 161.436C105.74 160.5 105.878 159.572 106.102 158.662C106.358 159.138 106.642 159.608 106.934 160.084C108.648 162.702 110.654 165.185 111.707 168.13C112.074 169.523 112.575 170.879 113.201 172.177C113.912 173.422 115.292 174.453 116.722 174.233C118.151 174.012 119.218 172.476 119.688 171.01C120.157 169.545 120.364 167.945 121.253 166.693C122.946 164.331 126.325 164.118 129.227 164.203C135.344 164.395 143.781 165.327 148.568 160.646C149.478 159.757 149.912 158.391 151.335 158.726C152.608 159.025 153.32 161.095 154.678 161.571C156.912 162.332 159.736 160.255 159.224 157.794C159.193 157.576 159.14 157.361 159.067 157.154V157.154Z" fill="black"/>
<path opacity="0.1" d="M105.511 198.517C104.202 199.535 102.552 200.417 102.09 202.01C101.826 202.942 102.026 203.945 101.89 204.898C101.705 205.776 101.309 206.596 100.738 207.288C100.167 207.981 99.4377 208.525 98.6112 208.874C97.9576 209.182 97.2733 209.421 96.5697 209.586C96.3779 210.317 95.9759 210.977 95.4133 211.483C94.8507 211.988 94.1523 212.318 93.4043 212.431C95.193 212.321 96.9518 211.92 98.6112 211.243C99.4377 210.894 100.167 210.349 100.738 209.657C101.309 208.965 101.705 208.145 101.89 207.267C102.026 206.314 101.826 205.311 102.09 204.379C102.552 202.785 104.224 201.903 105.511 200.886C108.975 198.19 110.611 193.645 110.746 189.256C110.746 188.601 110.746 187.954 110.746 187.307C110.498 191.546 108.876 195.935 105.511 198.517Z" fill="black"/>
</g>
</g>
<defs>
<linearGradient id="paint0_linear" x1="118.877" y1="484.536" x2="118.877" y2="123.821" gradientUnits="userSpaceOnUse">
<stop stop-color="#808080" stop-opacity="0.25"/>
<stop offset="0.54" stop-color="#808080" stop-opacity="0.12"/>
<stop offset="1" stop-color="#808080" stop-opacity="0.1"/>
</linearGradient>
<clipPath id="clip0">
<rect width="745.472" height="500" fill="white"/>
</clipPath>
</defs>
</svg>
