<svg width="791" height="500" viewBox="0 0 791 500" fill="none" xmlns="http://www.w3.org/2000/svg">
<g clip-path="url(#clip0)">
<path d="M699.028 330.281C695.198 363.096 687.24 389.442 676.316 410.453C661.78 438.449 636.917 449.728 614.707 461.531C608.289 464.936 601.616 467.837 594.749 470.209C554.333 484.236 509.098 480.515 473.565 473.109C448.643 467.91 423.346 464.712 397.914 463.545C390.661 463.218 383.4 463.055 376.132 463.058C364.925 463.072 163.134 466.902 114.003 367.435C101.873 342.898 93.5589 312.926 90.5718 276.39C82.1193 173.1 128.575 105.262 188.499 60.9207C301.855 -22.9574 457.234 -19.4398 568.919 66.6478C643.313 123.991 712.968 210.776 699.028 330.281Z" fill="#3F3D56"/>
<path d="M676.316 410.453C661.781 438.449 642.005 456.996 619.794 468.799C613.376 472.203 606.704 475.105 599.837 477.477C559.42 491.504 514.185 487.783 478.653 480.377C453.731 475.178 428.433 471.98 403.002 470.812C395.749 470.485 388.488 470.323 381.22 470.325C370.013 470.34 358.808 470.757 347.606 471.575C274.804 476.924 163.134 466.902 114.003 367.435L236.932 129.34L282.683 246.803L297.284 284.298L337.526 229.077L358.305 200.565L452.932 309.052L479.678 249.986L664.848 401.099L675.175 409.523L676.316 410.453Z" fill="#F2F2F2"/>
<path opacity="0.1" d="M219.489 205.652L238.385 164.226L264.549 224.549L242.019 180.942L219.489 205.652Z" fill="black"/>
<path opacity="0.1" d="M403.002 470.812C395.748 470.485 388.488 470.323 381.22 470.325L297.284 284.298L403.002 470.812Z" fill="black"/>
<path opacity="0.1" d="M337.526 229.076L358.304 212.92L452.786 321.938L356.851 228.909L337.526 229.076Z" fill="black"/>
<path opacity="0.1" d="M619.794 468.799C613.376 472.203 606.704 475.105 599.837 477.477L452.932 309.052L619.794 468.799Z" fill="black"/>
<path d="M350.31 76.285C351.514 76.285 352.49 75.3088 352.49 74.1047C352.49 72.9005 351.514 71.9243 350.31 71.9243C349.106 71.9243 348.129 72.9005 348.129 74.1047C348.129 75.3088 349.106 76.285 350.31 76.285Z" fill="#F2F2F2"/>
<path d="M289.987 151.144C291.191 151.144 292.167 150.167 292.167 148.963C292.167 147.759 291.191 146.783 289.987 146.783C288.783 146.783 287.806 147.759 287.806 148.963C287.806 150.167 288.783 151.144 289.987 151.144Z" fill="#F2F2F2"/>
<path d="M437.524 163.499C438.327 163.499 438.977 162.848 438.977 162.045C438.977 161.243 438.327 160.592 437.524 160.592C436.721 160.592 436.07 161.243 436.07 162.045C436.07 162.848 436.721 163.499 437.524 163.499Z" fill="#F2F2F2"/>
<path d="M132.275 196.204C133.077 196.204 133.728 195.553 133.728 194.751C133.728 193.948 133.077 193.297 132.275 193.297C131.472 193.297 130.821 193.948 130.821 194.751C130.821 195.553 131.472 196.204 132.275 196.204Z" fill="#F2F2F2"/>
<path d="M446.245 73.3778C447.048 73.3778 447.699 72.7271 447.699 71.9243C447.699 71.1215 447.048 70.4707 446.245 70.4707C445.443 70.4707 444.792 71.1215 444.792 71.9243C444.792 72.7271 445.443 73.3778 446.245 73.3778Z" fill="#F2F2F2"/>
<path d="M536.367 143.149C537.169 143.149 537.82 142.498 537.82 141.696C537.82 140.893 537.169 140.242 536.367 140.242C535.564 140.242 534.913 140.893 534.913 141.696C534.913 142.498 535.564 143.149 536.367 143.149Z" fill="#F2F2F2"/>
<path d="M625.034 253.62C625.837 253.62 626.488 252.97 626.488 252.167C626.488 251.364 625.837 250.713 625.034 250.713C624.231 250.713 623.581 251.364 623.581 252.167C623.581 252.97 624.231 253.62 625.034 253.62Z" fill="#F2F2F2"/>
<path d="M222.396 88.1021H220.39V86.0962H219.314V88.1021H217.308V89.1785H219.314V91.1837H220.39V89.1785H222.396V88.1021Z" fill="#F2F2F2"/>
<path d="M616.313 308.318H614.307V306.312H613.231V308.318H611.225V309.394H613.231V311.399H614.307V309.394H616.313V308.318Z" fill="#F2F2F2"/>
<path d="M790.741 446.218C790.741 458.26 613.728 500 395.37 500C177.013 500 0 458.26 0 446.218C0 434.176 177.013 456.393 395.37 456.393C613.728 456.393 790.741 434.176 790.741 446.218Z" fill="#3F3D56"/>
<path opacity="0.1" d="M790.741 446.218C790.741 458.26 613.728 500 395.37 500C177.013 500 0 458.26 0 446.218C0 434.176 177.013 456.393 395.37 456.393C613.728 456.393 790.741 434.176 790.741 446.218Z" fill="black"/>
<path d="M395.37 468.022C613.728 468.022 790.741 458.26 790.741 446.218C790.741 434.176 613.728 424.415 395.37 424.415C177.013 424.415 0 434.176 0 446.218C0 458.26 177.013 468.022 395.37 468.022Z" fill="#3F3D56"/>
<path d="M412.813 415.693C412.813 439.777 402.075 433.136 388.829 433.136C375.583 433.136 364.845 439.777 364.845 415.693C364.845 391.61 388.829 345.922 388.829 345.922C388.829 345.922 412.813 391.61 412.813 415.693Z" fill="#FF6584"/>
<path opacity="0.1" d="M399.731 424.908C399.731 435.855 394.85 432.836 388.829 432.836C382.809 432.836 377.928 435.855 377.928 424.908C377.928 413.96 388.829 393.193 388.829 393.193C388.829 393.193 399.731 413.96 399.731 424.908Z" fill="black"/>
<path d="M415.721 439.677H361.939C358.326 439.677 355.397 442.606 355.397 446.218C355.397 449.831 358.326 452.759 361.939 452.759H415.721C419.333 452.759 422.262 449.831 422.262 446.218C422.262 442.606 419.333 439.677 415.721 439.677Z" fill="#2F2E41"/>
<path d="M415.721 426.595H361.939C358.326 426.595 355.397 429.523 355.397 433.136C355.397 436.748 358.326 439.677 361.939 439.677H415.721C419.333 439.677 422.262 436.748 422.262 433.136C422.262 429.523 419.333 426.595 415.721 426.595Z" fill="#2F2E41"/>
<path d="M99.5693 356.508C99.5693 396.73 124.803 429.278 155.987 429.278Z" fill="#3F3D56"/>
<path d="M155.987 429.278C155.987 388.603 184.146 355.69 218.945 355.69Z" fill="#79B1B2"/>
<path d="M120.01 360.154C120.01 398.361 136.101 429.278 155.987 429.278Z" fill="#79B1B2"/>
<path d="M155.987 429.278C155.987 377.305 188.534 335.249 228.757 335.249Z" fill="#3F3D56"/>
<path d="M144.118 429.791C144.118 429.791 152.119 429.545 154.53 427.828C156.941 426.111 166.837 424.06 167.436 426.814C168.034 429.568 179.46 440.51 170.427 440.583C161.394 440.656 149.438 439.176 147.031 437.71C144.625 436.244 144.118 429.791 144.118 429.791Z" fill="#A8A8A8"/>
<path opacity="0.2" d="M170.588 439.624C161.555 439.697 149.599 438.217 147.193 436.751C145.36 435.635 144.629 431.629 144.385 429.781C144.216 429.788 144.118 429.791 144.118 429.791C144.118 429.791 144.625 436.244 147.031 437.71C149.438 439.176 161.394 440.656 170.427 440.583C173.034 440.562 173.935 439.634 173.885 438.26C173.523 439.09 172.529 439.609 170.588 439.624Z" fill="black"/>
<path d="M524.323 383.06C524.323 410.699 541.662 433.064 563.09 433.064Z" fill="#3F3D56"/>
<path d="M563.09 433.064C563.09 405.115 582.44 382.498 606.352 382.498Z" fill="#79B1B2"/>
<path d="M538.369 385.565C538.369 411.819 549.426 433.064 563.09 433.064Z" fill="#79B1B2"/>
<path d="M563.09 433.064C563.09 397.351 585.455 368.452 613.094 368.452Z" fill="#3F3D56"/>
<path d="M554.935 433.417C554.935 433.417 560.432 433.247 562.089 432.067C563.746 430.888 570.546 429.479 570.957 431.371C571.368 433.263 579.22 440.782 573.013 440.832C566.806 440.882 558.59 439.865 556.937 438.858C555.283 437.851 554.935 433.417 554.935 433.417Z" fill="#A8A8A8"/>
<path opacity="0.2" d="M573.123 440.173C566.916 440.223 558.701 439.207 557.047 438.199C555.788 437.432 555.286 434.679 555.118 433.409C555.002 433.414 554.935 433.417 554.935 433.417C554.935 433.417 555.283 437.851 556.937 438.858C558.59 439.865 566.806 440.882 573.013 440.832C574.804 440.818 575.423 440.18 575.389 439.236C575.14 439.806 574.457 440.163 573.123 440.173Z" fill="black"/>
<path d="M649.609 449.661C649.609 449.661 657.865 448.404 660.147 446.324C662.43 444.244 672.423 440.882 673.387 443.659C674.351 446.436 687.555 456.34 678.208 457.546C668.862 458.752 656.294 458.715 653.617 457.498C650.941 456.281 649.609 449.661 649.609 449.661Z" fill="#A8A8A8"/>
<path opacity="0.2" d="M678.255 456.533C668.909 457.739 656.341 457.702 653.664 456.485C651.626 455.558 650.369 451.5 649.884 449.617C649.71 449.645 649.609 449.661 649.609 449.661C649.609 449.661 650.941 456.281 653.617 457.498C656.294 458.715 668.862 458.752 678.208 457.546C680.906 457.197 681.723 456.124 681.5 454.707C681.229 455.612 680.263 456.273 678.255 456.533Z" fill="black"/>
<path d="M446.434 449.063C446.434 449.063 453.402 448.003 455.328 446.247C457.254 444.492 465.688 441.654 466.502 443.998C467.316 446.342 478.459 454.7 470.571 455.718C462.683 456.735 452.076 456.705 449.817 455.677C447.559 454.65 446.434 449.063 446.434 449.063Z" fill="#A8A8A8"/>
<path opacity="0.2" d="M470.61 454.863C462.722 455.88 452.115 455.85 449.857 454.822C448.137 454.04 447.075 450.616 446.666 449.026C446.519 449.05 446.434 449.063 446.434 449.063C446.434 449.063 447.559 454.65 449.817 455.677C452.076 456.705 462.683 456.735 470.571 455.717C472.848 455.424 473.537 454.518 473.349 453.322C473.12 454.086 472.305 454.644 470.61 454.863Z" fill="black"/>
<path d="M88.9504 445.584C88.9504 445.584 94.3747 444.758 95.8744 443.392C97.374 442.025 103.94 439.816 104.573 441.641C105.207 443.466 113.882 449.972 107.741 450.764C101.6 451.557 93.3424 451.533 91.5841 450.733C89.8259 449.933 88.9504 445.584 88.9504 445.584Z" fill="#A8A8A8"/>
<path opacity="0.2" d="M107.772 450.099C101.631 450.891 93.3732 450.868 91.615 450.068C90.276 449.459 89.4496 446.793 89.1313 445.555C89.0168 445.574 88.9504 445.584 88.9504 445.584C88.9504 445.584 89.8259 449.934 91.5841 450.733C93.3424 451.533 101.6 451.557 107.741 450.765C109.513 450.536 110.05 449.831 109.903 448.9C109.725 449.494 109.091 449.929 107.772 450.099Z" fill="black"/>
<path opacity="0.1" d="M278.864 437.029C278.864 458.992 248.249 452.199 210.765 452.199C173.28 452.199 143.12 458.992 143.12 437.029C143.12 415.065 173.731 410.288 211.215 410.288C248.7 410.288 278.864 415.065 278.864 437.029Z" fill="black"/>
<path d="M278.864 431.621C278.864 453.585 248.249 446.791 210.765 446.791C173.28 446.791 143.12 453.585 143.12 431.621C143.12 409.657 173.731 404.88 211.215 404.88C248.7 404.88 278.864 409.657 278.864 431.621Z" fill="#3F3D56"/>
<path d="M284.7 330.993C282.894 331.916 281.178 333.004 279.572 334.243C277.96 335.491 276.725 337.163 276.006 339.071C275.102 336.956 274.364 334.774 273.797 332.544C272.524 328.543 271.018 324.62 269.286 320.796C272.129 319.713 274.594 317.823 276.377 315.358C279.865 318.83 283.452 322.452 285.187 327.058C285.486 327.852 286.356 328.698 286.558 329.408C286.844 330.414 285.463 330.573 284.7 330.993Z" fill="#FFBFC5"/>
<path d="M317.526 415.653C321.336 416.857 324.889 418.758 328.005 421.26C328.239 421.407 328.409 421.637 328.481 421.905C328.56 422.508 327.754 422.755 327.169 422.923C325.449 423.418 324.35 425.034 323.083 426.299C321.817 427.564 319.781 428.556 318.304 427.546C317.915 427.249 317.576 426.892 317.3 426.489L311.057 418.34C313.174 417.157 315.399 416.18 317.703 415.422" fill="#F1F1F1"/>
<path d="M328.748 417.348C329.575 418.192 329.934 419.405 330.745 420.263C331.29 420.783 331.913 421.216 332.592 421.545L337.368 424.174C338.102 424.608 338.875 424.973 339.676 425.264C340.576 425.515 341.492 425.706 342.417 425.836C343.741 426.084 345.036 426.467 346.283 426.977C347.219 427.36 348.263 428.022 348.259 429.034C348.221 429.528 348.019 429.996 347.686 430.363C345.803 432.735 342.469 433.261 339.457 433.58C332.937 434.269 326.264 434.786 319.89 433.249C318.646 433.02 317.47 432.511 316.451 431.761C314.528 430.167 314.145 427.264 314.863 424.871C315.066 423.954 315.609 423.147 316.382 422.613C317.391 422.034 318.649 422.303 319.81 422.213C321.044 422.045 322.239 421.664 323.344 421.088C324.072 420.759 324.912 420.335 325.068 419.468C325.212 418.664 324.268 417.859 324.466 417.14C324.907 415.548 327.987 416.571 328.748 417.348Z" fill="#575A89"/>
<path opacity="0.1" d="M328.748 417.348C329.575 418.192 329.934 419.405 330.745 420.263C331.29 420.783 331.913 421.216 332.592 421.545L337.368 424.174C338.102 424.608 338.875 424.973 339.676 425.264C340.576 425.515 341.492 425.706 342.417 425.836C343.741 426.084 345.036 426.467 346.283 426.977C347.219 427.36 348.263 428.022 348.259 429.034C348.221 429.528 348.019 429.996 347.686 430.363C345.803 432.735 342.469 433.261 339.457 433.58C332.937 434.269 326.264 434.786 319.89 433.249C318.646 433.02 317.47 432.511 316.451 431.761C314.528 430.167 314.145 427.264 314.863 424.871C315.066 423.954 315.609 423.147 316.382 422.613C317.391 422.034 318.649 422.303 319.81 422.213C321.044 422.045 322.239 421.664 323.344 421.088C324.072 420.759 324.912 420.335 325.068 419.468C325.212 418.664 324.268 417.859 324.466 417.14C324.907 415.548 327.987 416.571 328.748 417.348Z" fill="black"/>
<path d="M339.83 443.439C340.5 443.879 341.168 444.321 341.837 444.763C342.452 445.091 342.959 445.59 343.295 446.201C343.73 447.224 343.141 448.38 342.487 449.278C340.523 451.963 337.843 454.04 334.754 455.271C333.682 455.717 332.55 456 331.395 456.109C331.131 456.15 330.86 456.116 330.614 456.011C330.003 455.688 330.09 454.813 330.083 454.122C330.062 452.115 328.546 450.485 327.184 449.011C325.822 447.537 324.433 445.722 324.745 443.739C325.028 442.572 325.626 441.505 326.474 440.654C327.229 439.708 328.114 438.872 329.103 438.174C330.52 437.247 331.02 437.746 332.354 438.596C334.858 440.191 337.35 441.806 339.83 443.439Z" fill="#F1F1F1"/>
<path d="M333.31 453.216C333.855 453.353 334.426 453.361 334.975 453.237C335.524 453.113 336.037 452.862 336.47 452.503C337.332 451.777 338.031 450.878 338.523 449.865C339.01 448.963 339.435 448.028 339.793 447.067C340.213 445.942 340.602 444.697 341.59 444.015C342.788 443.188 344.476 443.512 345.694 444.31C346.842 445.206 347.897 446.216 348.841 447.324C351.371 449.684 354.438 451.39 357.777 452.296C361.102 453.194 364.471 453.914 367.872 454.454C368.552 454.545 369.21 454.757 369.815 455.08C371.182 455.914 371.638 457.775 371.258 459.331C370.775 460.866 369.91 462.252 368.742 463.36C367.824 464.449 366.684 465.332 365.399 465.948C364.312 466.345 363.168 466.562 362.011 466.59C356.41 466.971 350.784 466.53 345.31 465.282C343.299 464.736 341.254 464.327 339.188 464.06C337.928 463.949 336.659 463.984 335.398 463.898C332.89 463.726 330.437 463.079 328.171 461.992C327.619 461.789 327.153 461.403 326.853 460.898C326.69 460.433 326.656 459.933 326.755 459.45L327.592 452.124C327.665 451.486 327.877 450.693 328.511 450.594C329.115 450.499 329.553 451.117 329.933 451.596C330.669 452.478 331.678 453.09 332.8 453.335C333.923 453.581 335.095 453.446 336.132 452.952" fill="#575A89"/>
<path d="M284.802 360.838C288.478 360.424 292.741 360.354 295.227 363.094C296.751 364.774 297.214 367.127 297.741 369.334C298.566 373.039 299.907 376.61 301.724 379.942C302.893 382.006 304.311 383.944 305.208 386.14C306.127 388.391 306.466 390.827 307.003 393.198C309.158 402.569 314.418 410.935 321.928 416.939C320.603 420.546 316.767 422.606 313.037 423.527C312.246 423.863 311.365 423.922 310.536 423.697C309.707 423.471 308.979 422.973 308.468 422.282C306.722 420.398 305.096 418.407 303.6 416.319C298.222 409.138 292.763 401.806 289.834 393.326C288.806 390.351 287.778 386.877 284.886 385.634C283.237 384.925 281.351 385.146 279.58 385.446C275.625 386.117 271.732 387.117 267.942 388.434C263.902 389.84 259.276 391.569 255.578 389.419C253.365 388.132 252.048 385.661 251.562 383.148C251.197 380.61 251.193 378.034 251.552 375.496C251.577 374.347 251.852 373.218 252.359 372.187C252.871 371.417 253.528 370.752 254.292 370.231C257.594 367.723 261.267 365.744 265.179 364.367C268.915 363.05 272.931 362.603 276.829 361.952C279.476 361.51 282.134 361.139 284.802 360.838Z" fill="#575A89"/>
<path opacity="0.1" d="M284.802 360.838C288.478 360.424 292.741 360.354 295.227 363.094C296.751 364.774 297.214 367.127 297.741 369.334C298.566 373.039 299.907 376.61 301.724 379.942C302.893 382.006 304.311 383.944 305.208 386.14C306.127 388.391 306.466 390.827 307.003 393.198C309.158 402.569 314.418 410.935 321.928 416.939C320.603 420.546 316.767 422.606 313.037 423.527C312.246 423.863 311.365 423.922 310.536 423.697C309.707 423.471 308.979 422.973 308.468 422.282C306.722 420.398 305.096 418.407 303.6 416.319C298.222 409.138 292.763 401.806 289.834 393.326C288.806 390.351 287.778 386.877 284.886 385.634C283.237 384.925 281.351 385.146 279.58 385.446C275.625 386.117 271.732 387.117 267.942 388.434C263.902 389.84 259.276 391.569 255.578 389.419C253.365 388.132 252.048 385.661 251.562 383.148C251.197 380.61 251.193 378.034 251.552 375.496C251.577 374.347 251.852 373.218 252.359 372.187C252.871 371.417 253.528 370.752 254.292 370.231C257.594 367.723 261.267 365.744 265.179 364.367C268.915 363.05 272.931 362.603 276.829 361.952C279.476 361.51 282.134 361.139 284.802 360.838Z" fill="black"/>
<path d="M305.845 387.345C307.551 388.206 309.116 389.318 310.491 390.645C311.909 392.316 312.986 394.248 313.661 396.333C313.964 397.029 314.149 397.77 314.21 398.526C314.238 398.905 314.179 399.284 314.038 399.637C313.897 399.989 313.678 400.305 313.397 400.56C312.716 400.998 311.909 401.195 311.103 401.121C310.037 401.13 308.971 401.102 307.907 401.038C307.259 401.033 306.618 400.911 306.014 400.679C305.461 400.396 304.961 400.018 304.539 399.563C302.666 397.823 301.131 395.75 300.013 393.451C299.241 391.75 297.971 387.828 299.186 386.057C300.437 384.233 304.522 386.595 305.845 387.345Z" fill="#FFBFC5"/>
<path d="M254.307 386.738C259.744 388.48 265.531 388.679 271.215 389.21C280.775 390.104 290.219 391.971 299.401 394.781C301.318 395.248 303.124 396.089 304.715 397.256C305.944 398.392 306.985 399.715 307.798 401.177C309.292 403.453 310.644 405.818 311.848 408.26C312.881 410.466 313.668 412.779 314.628 415.018C317.856 422.513 322.96 429.05 329.448 433.999C330.633 434.901 331.954 435.882 332.259 437.34C332.395 438.279 332.242 439.237 331.819 440.086C330.418 443.35 327.508 445.725 324.456 447.542C323.143 448.324 321.699 449.117 321.054 450.501C316.414 448.586 312.965 444.502 310.094 440.384C307.223 436.267 304.676 431.842 300.997 428.427C299.376 426.923 297.534 425.613 296.259 423.806C294.314 421.048 293.787 417.275 291.168 415.147C288.53 413.003 284.745 413.295 281.362 413.626C264.034 415.323 246.573 415.134 229.286 413.063C225.692 412.632 221.999 412.083 218.886 410.236C215.773 408.39 213.349 404.925 213.79 401.333C214.203 397.97 217.004 395.303 220.126 393.987C223.248 392.67 226.699 392.434 230.066 392.055C238.328 391.249 246.466 389.464 254.307 386.738V386.738Z" fill="#575A89"/>
<path d="M204.598 393.721C205.025 390.87 206.132 388.169 206.827 385.371C207.175 383.61 207.616 381.869 208.148 380.155C208.165 380.106 208.185 380.059 208.203 380.011C208.38 379.996 208.551 379.943 208.705 379.855C208.859 379.767 208.992 379.647 209.094 379.502C209.188 379.252 209.214 378.981 209.169 378.718C209.155 378.439 209.164 378.159 209.194 377.881C210.331 375.975 211.573 374.133 212.916 372.365C215.27 369.029 217.309 365.485 219.344 361.946C221.013 359.045 222.684 356.138 224.065 353.09C225.101 350.804 225.972 348.442 227.117 346.209C231.193 338.26 238.519 332.406 246.399 328.198C253.958 324.162 262.129 321.442 270.077 318.233C270.281 318.434 270.466 318.653 270.631 318.887C274.925 324.756 275.388 332.47 277.155 339.524C277.868 342.372 278.822 345.21 278.82 348.146C278.818 352.48 276.746 356.513 274.688 360.326C272.848 363.971 270.675 367.439 268.198 370.684C266.981 372.189 265.642 373.591 264.42 375.09C259.41 381.233 256.517 388.786 253.705 396.197C252.077 400.488 249.416 404.294 247.626 408.52C246.938 410.144 246.541 411.895 245.677 413.432C244.813 414.97 243.31 416.322 241.547 416.33C241.03 416.316 240.518 416.236 240.022 416.092C233.638 414.449 228.292 410.225 222.986 406.313C222.039 405.615 221.087 404.923 220.093 404.293C219.09 403.657 218.048 403.085 217.006 402.515C216.217 402.082 215.427 401.65 214.638 401.217C212.051 399.8 209.461 398.38 206.765 397.181C205.955 396.856 205.177 396.456 204.44 395.988C204.432 395.229 204.485 394.471 204.598 393.721V393.721Z" fill="#79B1B2"/>
<path d="M288.068 330.506C296.192 330.506 302.778 323.92 302.778 315.796C302.778 307.672 296.192 301.086 288.068 301.086C279.944 301.086 273.358 307.672 273.358 315.796C273.358 323.92 279.944 330.506 288.068 330.506Z" fill="#FFBFC5"/>
<path d="M297.962 308.913C298.318 309.535 298.857 310.032 299.505 310.337C300.153 310.641 300.879 310.739 301.585 310.616C302.287 310.475 302.951 310.188 303.533 309.772C304.116 309.356 304.604 308.822 304.966 308.205C305.681 306.963 306.109 305.577 306.218 304.148C306.333 303.599 306.337 303.033 306.232 302.483C306.127 301.932 305.914 301.408 305.605 300.94C305.057 300.409 304.427 299.968 303.74 299.635C302.792 299.043 301.996 298.237 301.416 297.282C301.004 296.603 300.709 295.859 300.339 295.156C299.001 292.614 296.398 290.548 293.527 290.642C292.149 290.687 290.834 291.211 289.475 291.449C284.915 292.249 279.958 289.836 275.728 291.718C274.687 292.224 273.719 292.87 272.851 293.636C271.66 294.618 270.515 295.653 269.417 296.741C268.463 297.554 267.74 298.605 267.324 299.787C266.749 301.945 268.115 304.357 267.246 306.414C266.948 307.003 266.593 307.561 266.185 308.079C265.225 309.487 266.268 314.982 266.162 316.683C266.04 317.515 266.252 318.362 266.751 319.039C267.445 319.813 268.612 319.88 269.651 319.893L271.561 319.916C271.846 319.936 272.133 319.906 272.408 319.829C272.783 319.662 273.112 319.408 273.369 319.088C274.957 317.414 275.301 311.941 277.608 311.961C277.959 311.942 278.307 312.032 278.603 312.219C279.022 312.526 279.145 313.089 279.441 313.514C279.78 313.914 280.238 314.194 280.748 314.313C281.259 314.432 281.794 314.384 282.274 314.176C283.227 313.735 284.056 313.066 284.687 312.226C285.315 311.389 286.078 310.661 286.943 310.071C288.172 309.354 289.562 309.042 290.758 308.232C291.758 307.554 292.327 306.572 293.225 305.824C293.583 305.514 294.034 305.332 294.507 305.306C294.98 305.279 295.449 305.41 295.84 305.677C297.255 306.416 297.317 307.627 297.962 308.913Z" fill="#2F2E41"/>
<path opacity="0.1" d="M263.975 334.83C267.411 334.342 270.912 334.623 274.225 335.654C275.331 335.906 276.33 336.499 277.082 337.348C277.509 337.992 277.787 338.723 277.896 339.488C278.572 343.005 278.138 346.646 276.656 349.907C276.55 350.07 276.48 350.253 276.45 350.446C276.42 350.638 276.432 350.834 276.484 351.021C276.633 351.248 276.828 351.441 277.056 351.588C277.263 351.787 277.425 352.027 277.532 352.293C277.639 352.558 277.688 352.844 277.676 353.13C277.665 353.416 277.593 353.697 277.465 353.953C277.337 354.209 277.156 354.435 276.934 354.617C276.66 354.817 276.3 354.991 276.246 355.326C276.188 355.692 276.531 355.978 276.798 356.234C277.19 356.618 277.479 357.094 277.638 357.618C277.798 358.143 277.823 358.699 277.71 359.236C277.566 359.668 277.467 360.113 277.415 360.566C277.471 361.119 277.634 361.656 277.895 362.147C278.342 363.255 278.495 364.459 278.338 365.643C278.196 366.202 278.182 366.787 278.298 367.353C278.459 367.727 278.678 368.073 278.948 368.379C280.005 369.806 280.237 372.191 278.703 373.085C279.359 373.422 279.894 373.955 280.233 374.611C280.572 375.266 280.698 376.011 280.593 376.741C281.509 376.252 282.619 376.877 283.382 377.581C284.145 378.286 284.924 379.147 285.961 379.199C286.684 379.235 287.446 378.86 288.106 379.157C289.109 379.61 289.074 381.237 290.061 381.724C290.926 382.152 292.131 381.454 292.869 382.077C293.126 382.294 293.256 382.629 293.504 382.856C294.064 383.368 294.938 383.15 295.696 383.12C296.595 383.146 297.472 383.406 298.24 383.874C299.008 384.343 299.64 385.004 300.073 385.792C300.92 387.38 301.431 389.125 301.574 390.918C301.768 391.893 301.748 392.898 301.517 393.864C301.393 394.345 301.13 394.779 300.761 395.111C300.392 395.444 299.933 395.66 299.442 395.734C290.415 396.318 281.507 394.153 272.717 392.013C270.135 391.385 267.509 390.649 265.356 389.092C263.4 387.677 261.961 385.676 260.558 383.711C257.972 380.089 255.368 376.438 253.517 372.39C251.134 367.18 250.072 361.48 249.03 355.847C248.671 354.336 248.544 352.78 248.652 351.232C248.964 349.42 249.657 347.696 250.684 346.171C251.926 344.15 253.3 342.213 254.796 340.373C257.071 337.46 260.339 335.487 263.975 334.83Z" fill="black"/>
<path d="M264.571 334.235C268.006 333.747 271.507 334.028 274.821 335.058C275.927 335.311 276.925 335.903 277.677 336.753C278.104 337.397 278.383 338.128 278.491 338.892C279.167 342.41 278.734 346.051 277.251 349.312C277.145 349.475 277.075 349.658 277.045 349.85C277.016 350.042 277.027 350.239 277.079 350.426C277.229 350.653 277.424 350.846 277.652 350.993C277.858 351.192 278.02 351.432 278.127 351.697C278.234 351.963 278.283 352.249 278.272 352.535C278.26 352.821 278.188 353.101 278.06 353.358C277.932 353.614 277.751 353.84 277.529 354.021C277.255 354.222 276.895 354.396 276.841 354.731C276.783 355.097 277.126 355.383 277.394 355.639C277.785 356.023 278.074 356.499 278.234 357.023C278.393 357.548 278.418 358.104 278.306 358.64C278.161 359.072 278.063 359.518 278.01 359.971C278.066 360.524 278.229 361.061 278.49 361.552C278.938 362.659 279.09 363.864 278.934 365.048C278.791 365.607 278.778 366.192 278.893 366.757C279.054 367.132 279.274 367.478 279.543 367.784C280.6 369.21 280.832 371.596 279.298 372.49C279.955 372.827 280.49 373.36 280.828 374.015C281.167 374.671 281.293 375.415 281.188 376.146C282.104 375.656 283.214 376.282 283.977 376.986C284.74 377.69 285.52 378.552 286.557 378.603C287.279 378.639 288.041 378.264 288.701 378.562C289.704 379.015 289.67 380.641 290.656 381.129C291.522 381.557 292.727 380.859 293.464 381.482C293.721 381.698 293.851 382.034 294.099 382.261C294.659 382.773 295.533 382.555 296.291 382.525C297.19 382.55 298.067 382.81 298.835 383.279C299.603 383.748 300.235 384.409 300.668 385.197C301.515 386.785 302.026 388.529 302.169 390.323C302.363 391.297 302.344 392.302 302.112 393.269C301.988 393.75 301.725 394.183 301.356 394.516C300.987 394.848 300.529 395.065 300.037 395.138C291.01 395.723 282.102 393.558 273.312 391.418C270.731 390.789 268.105 390.054 265.951 388.497C263.995 387.082 262.557 385.081 261.154 383.116C258.567 379.493 255.964 375.843 254.112 371.795C251.729 366.585 250.667 360.885 249.625 355.252C249.267 353.741 249.139 352.185 249.247 350.636C249.559 348.825 250.252 347.101 251.279 345.576C252.521 343.555 253.895 341.618 255.392 339.778C257.666 336.865 260.934 334.892 264.571 334.235Z" fill="#79B1B2"/>
</g>
<defs>
<clipPath id="clip0">
<rect width="790.741" height="500" fill="white"/>
</clipPath>
</defs>
</svg>
