<svg width="455" height="500" viewBox="0 0 455 500" fill="none" xmlns="http://www.w3.org/2000/svg">
<path d="M454.47 465.915C454.47 484.739 352.735 500 227.235 500C101.735 500 0 484.739 0 465.915C0 452.589 50.9959 441.044 125.316 435.443C155.964 433.127 190.591 431.83 227.235 431.83C242.298 431.83 257.017 432.049 271.253 432.467C375.685 435.546 454.47 449.349 454.47 465.915Z" fill="#3F3D56"/>
<path opacity="0.1" d="M197.914 472.879C246.089 472.879 285.143 468.12 285.143 462.25C285.143 456.38 246.089 451.621 197.914 451.621C149.739 451.621 110.685 456.38 110.685 462.25C110.685 468.12 149.739 472.879 197.914 472.879Z" fill="black"/>
<path d="M197.548 469.946C243.092 469.946 280.012 430.564 280.012 381.984C280.012 333.404 243.092 294.022 197.548 294.022C152.004 294.022 115.083 333.404 115.083 381.984C115.083 430.564 152.004 469.946 197.548 469.946Z" fill="#3F3D56"/>
<path d="M223.57 434.029H172.259V480.942H223.57V434.029Z" fill="#79B1B2"/>
<path d="M290.641 445.391L287.709 461.517L306.767 464.449L319.228 457.119L318.495 445.391H290.641Z" fill="#575A89"/>
<path d="M194.616 142.655C194.616 142.655 193.15 159.514 189.485 160.247C185.82 160.98 197.548 190.301 197.548 190.301H215.14L229.067 186.636L222.47 170.509C222.47 170.509 213.674 158.781 220.271 149.252C226.868 139.723 194.616 142.655 194.616 142.655Z" fill="#A0616A"/>
<path opacity="0.1" d="M194.616 142.655C194.616 142.655 193.15 159.514 189.485 160.247C185.82 160.98 197.548 190.301 197.548 190.301H215.14L229.067 186.636L222.47 170.509C222.47 170.509 213.674 158.781 220.271 149.252C226.868 139.723 194.616 142.655 194.616 142.655Z" fill="black"/>
<path d="M157.965 271.665C157.965 271.665 138.906 308.316 154.3 315.646C169.693 322.977 173.358 322.244 173.358 324.443C173.358 326.642 170.426 325.909 171.892 329.574C173.358 333.239 168.96 347.899 173.358 356.695C177.756 365.492 176.29 372.089 176.29 372.089C176.29 372.089 176.29 372.822 177.756 375.754C179.222 378.686 179.955 380.885 179.222 382.351C178.489 383.817 174.091 393.346 178.489 395.545C182.887 397.744 205.611 399.21 207.81 395.545C210.009 391.88 205.611 389.681 207.81 387.482C210.009 385.283 211.475 384.55 210.009 383.084C208.543 381.618 207.077 363.292 207.077 363.292C207.077 363.292 210.742 342.035 209.276 339.103C207.81 336.171 205.611 333.239 207.077 331.04C208.543 328.841 210.009 329.574 210.742 326.642C211.475 323.71 212.941 317.112 212.941 317.112L221.004 316.379L240.063 320.045C240.063 320.045 261.32 343.501 284.777 350.831C284.777 350.831 291.374 357.428 293.573 357.428C295.772 357.428 295.772 357.428 295.039 358.894C294.306 360.36 292.107 360.36 293.573 361.826C295.039 363.292 297.238 361.093 295.772 363.292C294.306 365.492 292.84 365.492 294.306 366.958C295.772 368.424 293.573 376.487 293.573 377.22C293.573 377.953 286.976 446.856 289.175 448.322C291.374 449.788 322.16 454.186 324.36 448.322C326.559 442.458 322.893 435.128 322.893 435.128C322.893 435.128 333.889 347.166 330.957 341.302C328.025 335.438 317.762 309.049 262.786 292.19C262.786 292.19 247.393 289.258 247.393 287.059C247.393 284.86 245.927 270.932 242.995 270.199C240.063 269.466 223.203 268.733 223.203 268.733L201.946 275.331L172.625 270.199L157.965 271.665Z" fill="#2F2E41"/>
<path d="M183.62 394.812L179.955 408.007C179.955 408.007 177.023 429.264 180.688 434.395C183.567 438.426 188.707 443.36 198.24 444.227C200.912 444.472 203.587 443.798 205.823 442.316C208.06 440.834 209.723 438.633 210.539 436.077C210.648 435.771 210.717 435.452 210.742 435.128C210.742 433.662 208.543 416.07 208.543 416.07L204.878 397.744L204.145 392.613L183.62 394.812Z" fill="#2F2E41"/>
<path d="M290.641 457.852C290.641 457.852 286.976 454.186 286.243 457.852C285.51 461.517 282.578 476.91 287.709 477.643C292.84 478.376 341.952 485.706 347.083 482.774C352.214 479.842 361.743 475.444 355.879 473.245C350.015 471.046 333.156 464.449 333.156 464.449C333.156 464.449 323.626 451.987 322.16 451.254C320.694 450.521 312.631 451.987 308.966 454.919C305.301 457.852 290.641 457.852 290.641 457.852Z" fill="#2F2E41"/>
<path d="M212.208 158.048C224.758 158.048 234.932 147.874 234.932 135.325C234.932 122.775 224.758 112.601 212.208 112.601C199.658 112.601 189.485 122.775 189.485 135.325C189.485 147.874 199.658 158.048 212.208 158.048Z" fill="#A0616A"/>
<path d="M210.009 186.636L201.213 177.106L191.463 158.048C191.463 158.048 184.354 155.849 182.888 159.514C181.421 163.179 155.033 174.907 155.033 174.907C155.033 174.907 161.63 236.481 158.698 242.345C155.766 248.209 150.635 271.665 155.033 273.865C159.431 276.064 179.955 273.865 186.553 276.797C193.15 279.729 212.208 279.729 217.339 276.064C222.47 272.399 223.936 269.466 229.068 271.665C233.436 273.538 243.648 209.534 246.588 190.461C246.836 188.859 246.63 187.22 245.994 185.729C245.358 184.238 244.318 182.955 242.99 182.024C236.413 177.411 224.567 169.461 222.47 170.509C219.538 171.975 210.009 186.636 210.009 186.636Z" fill="#575A89"/>
<path d="M241.529 183.704C243.25 184.134 244.798 185.081 245.966 186.417C247.133 187.753 247.864 189.414 248.06 191.177L253.99 244.544C253.99 244.544 239.33 276.064 231.999 254.806C224.669 233.549 241.529 183.704 241.529 183.704Z" fill="#575A89"/>
<path d="M240.063 249.675L256.189 245.277C256.189 245.277 259.121 265.802 262.053 265.802C264.985 265.802 251.791 277.53 245.194 276.064C238.597 274.598 229.068 269.467 228.334 265.802C227.601 262.136 234.932 246.743 234.932 246.743L240.063 249.675Z" fill="#575A89"/>
<path d="M195.054 145.127C196.599 141.72 196.331 137.746 197.609 134.23C198.293 132.347 199.403 130.648 200.852 129.265C202.301 127.882 204.051 126.853 205.964 126.259C207.876 125.664 209.901 125.519 211.879 125.836C213.857 126.154 215.735 126.924 217.366 128.087C219.009 129.258 220.656 130.904 222.662 130.681C224.822 130.44 226.749 128.03 228.735 128.913C230.936 129.892 230.341 133.837 232.571 134.748C233.745 135.228 235.132 134.489 235.809 133.417C236.401 132.29 236.724 131.042 236.751 129.769C237.059 126.643 237.337 123.334 235.981 120.5C235.411 119.54 234.914 118.538 234.495 117.502C234.257 116.536 234.162 115.539 234.212 114.545C234.2 110.871 233.931 107.038 232.082 103.862C230.03 100.338 226.237 98.0852 222.279 97.102C218.322 96.1189 214.176 96.2696 210.113 96.6136C203.396 97.1822 196.391 98.4011 191.099 102.577C190.38 103.102 189.761 103.752 189.271 104.497C188.807 105.381 188.479 106.33 188.298 107.313C187.154 111.972 185.438 116.472 183.191 120.71C182.109 122.507 181.226 124.415 180.555 126.402C179.994 128.421 180.032 130.722 181.206 132.458C182.163 133.871 183.692 134.623 184.893 135.779C186.084 136.923 186.64 139.124 187.959 139.991C189.11 140.748 190.489 140.214 191.663 141.015C193.17 142.045 193.279 144.302 195.054 145.127Z" fill="#2F2E41"/>
<path d="M213.674 197.631L215.873 193.233C215.873 193.233 248.126 202.762 254.723 211.558C254.723 211.558 270.849 201.296 279.646 202.762L288.442 204.228L261.32 228.418L226.868 225.486L213.674 197.631Z" fill="#F2F2F2"/>
<path d="M212.208 193.233L182.155 235.015L225.402 256.272C225.402 256.272 229.446 258.471 232.555 256.272L261.32 243.078L288.442 204.228L261.32 218.155C261.32 218.155 258.388 212.291 252.524 215.223L212.208 193.233Z" fill="#79B1B2"/>
<path d="M258.388 267.267L264.252 251.874C264.252 251.874 277.446 235.015 270.116 226.952C262.786 218.888 254.723 250.408 254.723 250.408L258.388 267.267Z" fill="#A0616A"/>
<path d="M190.729 264.811L203.525 254.437C203.525 254.437 223.397 246.473 221.101 235.821C218.806 225.168 196.017 248.388 196.017 248.388L190.729 264.811Z" fill="#A0616A"/>
<path opacity="0.1" d="M159.064 190.667H158.331C158.331 190.667 146.97 177.107 144.771 195.432C142.572 213.757 135.241 274.598 154.3 276.797C173.358 278.996 186.919 267.634 186.919 267.634C186.919 267.634 200.846 246.377 195.715 246.377C193.233 246.377 186.48 245.262 180.322 245.644C173.752 246.051 167.849 247.902 168.227 246.01C168.96 242.345 179.589 195.799 159.064 190.667Z" fill="black"/>
<path d="M157.965 176.374L155.033 174.907C155.033 174.907 143.305 177.107 141.106 195.432C138.907 213.757 131.576 274.598 150.635 276.797C169.693 278.996 195.349 273.865 195.349 273.865C195.349 273.865 200.48 246.01 195.349 246.01C190.218 246.01 163.829 249.675 164.562 246.01C165.295 242.345 178.489 181.505 157.965 176.374Z" fill="#575A89"/>
<path d="M247.759 258.838L255.842 246.449L260.954 266.901L247.759 272.765V258.838Z" fill="#575A89"/>
<path d="M81.7116 82.181C92.6421 82.181 101.503 73.3201 101.503 62.3896C101.503 51.4591 92.6421 42.5981 81.7116 42.5981C70.7811 42.5981 61.9202 51.4591 61.9202 62.3896C61.9202 73.3201 70.7811 82.181 81.7116 82.181Z" fill="#37F13F"/>
<path d="M105.168 209.726H58.2551V256.639H105.168V209.726Z" fill="#EF2850"/>
<path d="M272.682 0L284.556 20.5662L296.429 41.1324H272.682H248.934L260.808 20.5662L272.682 0Z" fill="#584CE2"/>
</svg>
